<svg width="40" height="40" viewBox="0 0 40 40" fill="none" xmlns="http://www.w3.org/2000/svg">
<path fill-rule="evenodd" clip-rule="evenodd" d="M20 0C8.95536 0 0 9.17857 0 20.5089C0 29.5714 5.73214 37.25 13.6786 39.9643C14.6786 40.1518 15.0446 39.5179 15.0446 38.9732C15.0446 38.4821 15.0268 37.1964 15.0179 35.4821C9.45536 36.7232 8.27679 32.7321 8.27679 32.7321C7.36607 30.3661 6.05357 29.7321 6.05357 29.7321C4.24107 28.4554 6.1875 28.4821 6.1875 28.4821C8.19643 28.625 9.25 30.5982 9.25 30.5982C11.0357 33.7321 13.9286 32.8304 15.0714 32.3036C15.25 30.9821 15.7679 30.0714 16.3393 29.5625C11.9018 29.0446 7.23214 27.2857 7.23214 19.4286C7.23214 17.1875 8.00893 15.3571 9.28571 13.9286C9.08036 13.4107 8.39286 11.3214 9.48214 8.5C9.48214 8.5 11.1607 7.94643 14.9821 10.5982C16.5804 10.1429 18.2857 9.91964 19.9911 9.91071C21.6875 9.91964 23.4018 10.1429 25 10.5982C28.8214 7.94643 30.4911 8.5 30.4911 8.5C31.5804 11.3214 30.8929 13.4107 30.6875 13.9286C31.9643 15.3661 32.7411 17.1964 32.7411 19.4286C32.7411 27.3036 28.0625 29.0357 23.6071 29.5446C24.3214 30.1786 24.9643 31.4286 24.9643 33.3393C24.9643 36.0804 24.9375 38.2946 24.9375 38.9643C24.9375 39.5089 25.2946 40.1518 26.3125 39.9464C34.2768 37.2411 40 29.5625 40 20.5089C40 9.17857 31.0446 0 20 0Z" fill="white"/>
</svg>
