<svg version="1.1" id="Layer_1" xmlns="http://www.w3.org/2000/svg" xmlns:xlink="http://www.w3.org/1999/xlink" x="0px" y="0px"
	 width="100%" viewBox="0 0 1920 1920" enable-background="new 0 0 1920 1920" xml:space="preserve">
<path fill="#000000" opacity="1.000000" stroke="none" 
	d="
M882.000000,1921.000000 
	C588.000000,1921.000000 294.500000,1921.000000 1.000000,1921.000000 
	C1.000000,1281.000000 1.000000,641.000000 1.000000,1.000000 
	C641.000000,1.000000 1281.000000,1.000000 1921.000000,1.000000 
	C1921.000000,641.000000 1921.000000,1281.000000 1921.000000,1921.000000 
	C1574.833374,1921.000000 1228.666626,1921.000000 882.000000,1921.000000 
M519.345642,925.991638 
	C518.872864,926.306030 518.400024,926.620422 517.996094,926.998230 
	C517.996094,926.998230 517.944458,926.920288 517.245056,926.994446 
	C515.808716,927.971741 514.372375,928.949036 513.005249,929.980347 
	C513.005249,929.980347 512.968201,929.900635 512.416138,930.069824 
	C512.218628,930.391541 512.021118,930.713257 511.220734,931.235657 
	C509.813477,932.176453 508.406219,933.117249 506.225128,934.028809 
	C502.452972,936.341980 498.680817,938.655090 494.985107,940.979431 
	C494.985107,940.979431 494.988373,940.902283 494.319855,941.005737 
	C493.515411,941.665161 492.710968,942.324585 492.003235,942.997620 
	C492.003235,942.997620 492.017120,942.900940 491.304901,943.026611 
	C490.360504,943.694580 489.416077,944.362549 488.376007,944.917847 
	C488.376007,944.917847 488.251709,944.997864 487.619812,945.032776 
	C487.381439,945.350769 487.143066,945.668701 486.993652,945.991882 
	C486.993652,945.991882 486.995667,945.902771 486.259216,946.019836 
	C480.144135,949.998840 474.029053,953.977844 467.984894,957.985535 
	C467.984894,957.985535 467.963104,957.912170 467.236359,958.001343 
	C463.127045,960.992188 459.017761,963.983032 454.987122,966.982910 
	C454.987122,966.982910 454.989441,966.903748 454.259155,967.017822 
	C453.241730,967.456726 452.089478,967.715637 451.227417,968.361816 
	C440.229523,976.605652 429.200287,984.811462 418.366943,993.267700 
	C416.149567,994.998413 414.706299,997.720764 412.989105,999.988770 
	C412.989105,999.988770 412.986938,999.905884 412.263245,1000.005676 
	C404.163300,1008.103149 395.683136,1015.863953 388.104431,1024.422974 
	C383.479279,1029.646484 380.057770,1035.950928 376.466736,1042.061890 
	C373.392181,1047.294067 371.661255,1052.711670 370.260406,1058.094727 
	C368.144379,1066.226074 368.908752,1074.783203 373.096130,1082.355469 
	C375.922607,1087.466797 378.997864,1092.707642 384.995270,1095.004883 
	C384.995270,1095.004883 384.923676,1095.054932 385.000732,1095.793335 
	C387.007446,1096.892700 389.014191,1097.992188 391.010437,1098.990234 
	C391.010437,1098.990234 390.908600,1098.996094 391.173492,1099.661743 
	C397.466827,1102.463623 403.760162,1105.265625 410.073151,1107.966675 
	C410.073151,1107.966675 409.980133,1107.923340 410.252502,1108.123169 
	C410.337097,1108.335693 410.457916,1108.525024 411.561829,1108.867798 
	C411.878998,1108.817871 412.196198,1108.768066 413.187622,1108.942383 
	C428.508606,1116.621216 445.229767,1117.441895 462.734344,1118.979736 
	C469.339508,1119.190430 475.944702,1119.401123 483.388031,1119.456177 
	C487.305176,1119.922485 491.227814,1120.828735 495.138519,1120.779785 
	C513.241028,1120.553223 531.339966,1120.044556 549.440857,1119.670776 
	C561.630005,1119.418823 573.826538,1119.386597 586.007141,1118.923584 
	C591.004822,1118.733765 595.955566,1117.527954 600.952698,1117.042114 
	C605.797791,1116.571167 610.675049,1116.431030 616.601440,1116.083252 
	C614.887756,1117.444214 614.103455,1118.067017 612.877014,1119.041016 
	C616.892395,1118.684814 620.156860,1118.731445 620.226135,1123.513306 
	C620.231506,1123.885498 620.766235,1124.391113 621.174622,1124.594971 
	C626.193909,1127.100342 631.235352,1129.561279 635.784302,1131.794556 
	C633.851257,1132.456787 631.805725,1133.085083 634.167175,1136.854248 
	C638.676453,1144.051880 642.341187,1151.773926 646.701660,1159.072021 
	C648.280457,1161.714355 650.847961,1163.765869 652.981201,1166.015015 
	C652.981201,1166.015015 652.908203,1166.027222 653.004028,1166.809570 
	C653.335999,1167.869629 653.422729,1169.105835 654.037964,1169.962402 
	C659.850464,1178.055908 665.689819,1186.132446 671.692017,1194.085083 
	C672.684814,1195.400391 674.503662,1196.092407 675.994751,1197.002441 
	C675.994751,1197.002441 675.922485,1197.053711 676.003540,1197.799072 
	C680.942017,1203.639526 685.739624,1209.608032 690.881897,1215.263184 
	C693.240906,1217.857300 696.276855,1219.835938 699.003845,1221.997437 
	C699.003845,1221.997437 698.907593,1221.997559 699.013428,1222.703857 
	C700.665955,1224.165649 702.318481,1225.627563 703.981445,1227.016479 
	C703.981445,1227.016479 703.908142,1227.023682 704.007568,1227.732666 
	C704.999451,1228.520020 705.991333,1229.307373 706.987488,1230.011230 
	C706.987488,1230.011230 706.903992,1230.012207 706.998474,1230.723145 
	C707.653503,1231.178223 708.308533,1231.633301 708.986511,1232.014282 
	C708.986511,1232.014282 708.916016,1232.046509 709.149292,1232.676758 
	C713.439941,1236.147827 717.730652,1239.618896 722.015869,1242.985352 
	C722.015869,1242.985352 721.911133,1242.984009 722.020569,1243.694946 
	C722.997253,1244.489868 723.973938,1245.284912 724.997009,1246.006958 
	C724.997009,1246.006958 724.925903,1246.055908 724.997864,1246.778320 
	C735.393799,1254.525391 745.717163,1262.372803 756.228210,1269.960449 
	C759.554871,1272.361938 763.382385,1274.069580 766.984192,1276.020752 
	C766.984192,1276.020752 766.911560,1276.036377 767.135193,1276.655029 
	C767.765381,1276.792114 768.395569,1276.929199 769.071167,1276.971069 
	C769.071167,1276.971069 768.988159,1276.905762 769.185364,1277.200684 
	C769.271851,1277.432861 769.421753,1277.611816 770.285339,1277.973633 
	C770.515320,1277.989380 770.745300,1278.005005 771.091370,1278.549683 
	C771.391663,1278.732300 771.691956,1278.915039 771.990784,1279.013306 
	C771.990784,1279.013306 771.906616,1279.019897 772.152039,1279.689087 
	C778.122986,1282.779053 784.093933,1285.869019 790.366516,1289.128784 
	C790.366516,1289.128784 790.670776,1288.963501 791.031189,1289.650146 
	C797.028870,1292.486694 803.026489,1295.323242 809.309875,1298.801636 
	C810.871338,1299.217896 812.432861,1299.634033 814.021362,1300.823975 
	C814.423889,1301.212402 814.759094,1301.791626 815.238892,1301.960693 
	C824.040527,1305.062744 833.145935,1307.484497 841.607422,1311.327026 
	C854.242798,1317.064575 867.575012,1319.599365 881.332031,1322.118408 
	C881.332031,1322.118408 881.632507,1321.951538 882.098022,1322.613770 
	C887.435059,1323.752075 892.723328,1325.281128 898.118408,1325.953979 
	C913.123169,1327.825317 928.137939,1330.056030 943.214355,1330.781372 
	C956.363464,1331.413940 969.620850,1330.505127 982.795654,1329.704834 
	C997.614136,1328.804810 1012.417786,1327.483643 1027.175415,1325.867432 
	C1031.655640,1325.376709 1035.962036,1323.300293 1040.656372,1322.113037 
	C1040.656372,1322.113037 1040.961548,1321.944214 1041.823608,1321.950562 
	C1050.015503,1320.026245 1058.424316,1318.740234 1066.353516,1316.043457 
	C1082.394287,1310.588135 1098.303955,1304.686035 1114.006348,1298.323486 
	C1121.472412,1295.298340 1128.339233,1290.794434 1135.646118,1287.126587 
	C1135.646118,1287.126587 1135.835693,1286.984863 1136.546997,1286.967896 
	C1137.394653,1286.312866 1138.242310,1285.657959 1138.989502,1284.993042 
	C1138.989502,1284.993042 1138.975952,1285.093140 1139.743286,1284.954346 
	C1144.193848,1282.308472 1148.644531,1279.662598 1153.005005,1277.007812 
	C1153.005005,1277.007812 1152.998779,1277.098145 1153.706543,1276.990723 
	C1155.166870,1276.007080 1156.627197,1275.023438 1158.015991,1274.017944 
	C1158.015991,1274.017944 1158.028809,1274.091675 1158.760864,1273.996704 
	C1162.868896,1270.992920 1166.977051,1267.989136 1170.979492,1264.979004 
	C1170.979492,1264.979004 1170.964111,1265.083862 1171.670288,1264.937500 
	C1173.143066,1263.970337 1174.615723,1263.003174 1176.016724,1262.017212 
	C1176.016724,1262.017212 1176.028198,1262.090576 1176.748169,1261.991699 
	C1179.375488,1260.255005 1182.182739,1258.735229 1184.592773,1256.736450 
	C1189.537964,1252.635132 1194.270264,1248.276855 1199.016479,1244.018311 
	C1199.016479,1244.018311 1199.019409,1244.092285 1199.761841,1243.990112 
	C1201.852905,1242.484253 1204.148926,1241.192627 1205.992432,1239.428101 
	C1209.814575,1235.769653 1213.396240,1231.860107 1217.004883,1228.004883 
	C1217.004883,1228.004883 1217.054199,1228.076416 1217.752930,1228.000610 
	C1219.865723,1225.675903 1221.978638,1223.351074 1224.017456,1221.019165 
	C1224.017456,1221.019165 1224.021484,1221.093384 1224.728760,1221.001587 
	C1225.512329,1220.018066 1226.295776,1219.034668 1227.005981,1218.003906 
	C1227.005981,1218.003906 1227.056519,1218.074707 1227.756226,1217.999390 
	C1231.785278,1213.836182 1235.929688,1209.776489 1239.795898,1205.467163 
	C1241.809082,1203.223389 1243.331787,1200.539551 1245.004883,1198.000977 
	C1245.004883,1198.000977 1245.059448,1198.071289 1245.788940,1197.994629 
	C1249.563477,1193.514160 1253.645630,1189.253784 1257.043091,1184.503662 
	C1262.664551,1176.644409 1267.902710,1168.507202 1273.193848,1160.416016 
	C1278.053711,1152.984497 1283.127319,1145.657837 1287.436768,1137.912231 
	C1290.884277,1131.715454 1293.191284,1124.894897 1296.248535,1118.467285 
	C1300.026001,1110.524780 1304.558228,1102.904785 1307.836182,1094.771362 
	C1311.151855,1086.544922 1312.879639,1077.679321 1316.177856,1069.444214 
	C1318.259766,1064.246460 1317.622925,1057.699463 1322.995483,1053.999390 
	C1322.995483,1053.999390 1322.983643,1054.096802 1323.740723,1053.973145 
	C1332.181519,1048.340210 1340.622437,1042.707275 1348.993408,1037.018188 
	C1348.993408,1037.018188 1349.034180,1037.098022 1349.556763,1036.938721 
	C1349.736816,1036.634399 1349.916748,1036.330078 1350.021606,1036.006592 
	C1350.021606,1036.006592 1350.055908,1036.076172 1350.773682,1035.999023 
	C1353.536987,1033.690308 1356.300415,1031.381592 1358.994873,1029.017578 
	C1358.994873,1029.017578 1359.032837,1029.097290 1359.555420,1028.938599 
	C1359.735718,1028.634888 1359.916016,1028.331055 1360.020386,1028.005127 
	C1360.020386,1028.005127 1360.058228,1028.074219 1360.765747,1027.998169 
	C1362.865356,1026.021729 1364.964966,1024.045288 1367.000000,1022.000000 
	C1367.000000,1022.000000 1367.064087,1022.070007 1367.762695,1022.000732 
	C1371.870117,1017.680908 1375.977539,1013.361084 1380.012939,1009.011963 
	C1380.012939,1009.011963 1380.043335,1009.083557 1380.771362,1009.000610 
	C1382.294189,1007.728577 1383.793945,1006.427734 1385.343750,1005.189331 
	C1393.585693,998.602600 1397.570801,987.401794 1408.555420,983.766785 
	C1409.128540,983.576965 1409.638550,982.982117 1410.020142,982.460327 
	C1413.035156,978.339844 1416.182739,974.300720 1418.929077,970.005920 
	C1420.354492,967.776794 1420.930420,965.023132 1422.094360,962.604736 
	C1426.291260,953.884399 1433.979492,947.322937 1435.593262,936.727356 
	C1436.411499,931.354187 1434.801392,927.581360 1432.955566,923.791809 
	C1431.156128,920.097351 1430.816406,917.331726 1432.645142,913.740906 
	C1434.435303,910.225952 1435.662964,906.411255 1436.981079,902.672913 
	C1438.196289,899.226318 1438.672974,895.408508 1440.424683,892.287292 
	C1443.194702,887.351562 1446.594116,882.736328 1450.031982,878.217468 
	C1453.413940,873.771851 1457.668945,870.236206 1460.943359,865.420227 
	C1465.895752,858.136475 1473.556763,852.719666 1479.916138,846.358765 
	C1484.436401,841.837524 1488.197144,836.396301 1493.217407,832.574951 
	C1499.880127,827.503357 1504.519897,820.799438 1509.978027,814.756409 
	C1511.434448,813.143982 1512.168213,810.894104 1513.557251,809.202637 
	C1517.223511,804.738220 1521.209473,800.531555 1524.780640,795.995911 
	C1526.579590,793.711182 1527.843384,790.980286 1529.176636,788.363281 
	C1529.928711,786.886841 1530.330566,785.232056 1530.890137,783.657593 
	C1530.484253,783.602844 1530.078491,783.548096 1529.672607,783.493347 
	C1526.306519,785.957764 1522.940308,788.422180 1520.086182,790.511780 
	C1516.301514,792.612183 1513.045532,794.419189 1509.789551,796.226257 
	C1509.135498,795.469177 1508.481445,794.712158 1507.827393,793.955078 
	C1513.940552,788.748596 1520.087524,783.580811 1526.129883,778.293396 
	C1527.027954,777.507507 1527.433228,776.158447 1528.004883,775.000000 
	C1528.004883,775.000000 1528.072510,775.066040 1528.742554,774.803894 
	C1531.185669,771.557251 1533.628906,768.310547 1536.000000,765.000000 
	C1536.000000,765.000000 1536.070312,765.067139 1536.716797,764.826965 
	C1537.897583,763.297119 1539.346802,761.904602 1540.212769,760.213501 
	C1543.899170,753.014587 1548.436035,746.024292 1550.656006,738.375427 
	C1552.336792,732.584778 1551.087646,725.910461 1550.950439,719.633606 
	C1550.776001,711.657410 1546.209473,705.581177 1540.872070,700.599487 
	C1530.505615,690.923828 1517.561646,685.554688 1504.125610,681.711975 
	C1495.513062,679.248840 1486.642578,677.544312 1477.786865,676.131775 
	C1472.999023,675.368164 1467.999634,675.932007 1462.282959,675.690979 
	C1457.823975,675.143372 1453.364990,674.595703 1448.711548,673.223755 
	C1442.331177,672.820862 1435.950684,672.419128 1429.570557,672.013428 
	C1428.915161,671.971741 1428.262085,671.872559 1427.606567,671.856750 
	C1416.021973,671.576965 1404.420288,670.794495 1392.857544,671.180603 
	C1381.831665,671.548645 1370.862793,673.383667 1359.838379,674.113953 
	C1350.317871,674.744568 1340.754639,674.728821 1331.210205,674.998474 
	C1330.877319,675.007874 1330.541626,674.988220 1330.211792,675.024109 
	C1318.081055,676.345520 1305.954102,677.700928 1293.819580,678.986572 
	C1286.841553,679.725830 1279.771851,679.904724 1272.885010,681.131226 
	C1261.282349,683.197693 1249.786743,685.770203 1237.953613,683.002441 
	C1234.990967,682.309509 1232.002075,681.724670 1229.052246,680.982971 
	C1223.465698,679.578186 1217.802856,678.381531 1212.354492,676.553650 
	C1208.112183,675.130432 1204.185547,672.790833 1200.046875,671.026917 
	C1196.579224,669.549255 1192.830444,668.643799 1189.539429,666.867493 
	C1186.967651,665.479431 1185.106323,662.814819 1182.583618,661.289124 
	C1173.162964,655.591919 1163.676880,649.991394 1154.052979,644.646973 
	C1150.115845,642.460632 1145.765137,641.019470 1140.981445,638.617798 
	C1140.711914,638.503296 1140.442383,638.388794 1140.049194,638.276428 
	C1140.049194,638.276428 1139.592896,638.243835 1138.983154,637.620239 
	C1138.713989,637.510376 1138.444946,637.400513 1138.105225,637.299500 
	C1138.105225,637.299500 1137.853516,637.292664 1136.950073,636.541565 
	C1136.602539,636.361084 1136.254883,636.180603 1135.818726,635.795044 
	C1135.436279,635.606140 1135.053955,635.417236 1134.190186,634.774536 
	C1134.005127,634.654480 1133.820068,634.534485 1133.675293,634.432861 
	C1133.675293,634.432861 1133.746216,634.457886 1132.740601,634.007080 
	C1132.406006,633.855286 1132.071533,633.703491 1131.561890,633.304016 
	C1131.273193,633.223755 1130.979858,633.206909 1129.972778,632.612793 
	C1129.675415,632.498047 1129.378174,632.383362 1128.986084,632.274109 
	C1128.986084,632.274109 1128.621826,632.244812 1128.321533,631.887756 
	C1128.321533,631.887756 1127.896606,631.695190 1127.931274,630.982666 
	C1124.110352,628.941895 1120.414429,626.603516 1116.437622,624.934387 
	C1111.243896,622.754456 1105.827759,621.104309 1099.234497,618.811890 
	C1098.821899,618.642151 1098.409302,618.472473 1097.955933,618.296265 
	C1097.955933,618.296265 1097.802368,618.295227 1096.996704,617.994568 
	C1094.933350,617.150757 1092.869995,616.306946 1090.923462,614.819519 
	C1090.229126,614.215027 1089.631958,613.335632 1088.824707,613.049927 
	C1083.005127,610.990112 1077.166992,608.975952 1071.287720,607.094116 
	C1065.697266,605.304749 1060.114258,603.422913 1054.412231,602.069214 
	C1046.473999,600.184631 1038.466675,598.519775 1030.417236,597.195618 
	C1022.481689,595.890137 1014.456970,595.126648 1005.701233,593.950073 
	C1002.239624,593.656067 998.777954,593.362000 995.014038,592.225464 
	C990.362671,591.482727 985.726379,590.239502 981.056885,590.098633 
	C970.417908,589.777710 959.762207,589.953186 949.114319,590.046936 
	C947.593323,590.060303 946.078186,590.740906 943.767517,591.010010 
	C943.025574,591.317810 942.296265,591.855652 941.539612,591.897400 
	C934.637390,592.278198 927.722046,592.453674 920.827698,592.935669 
	C916.453125,593.241577 912.065125,593.740173 907.759094,594.554260 
	C900.915466,595.848083 894.099182,597.331116 887.335876,598.996399 
	C874.249451,602.218567 861.208008,605.623413 847.725769,608.364624 
	C845.610657,608.980347 843.460876,609.498047 841.387146,610.231018 
	C836.059204,612.114075 830.660583,613.850830 825.481628,616.089050 
	C817.544250,619.519348 809.767517,623.321167 801.992554,626.983154 
	C801.992554,626.983154 801.996887,626.911194 801.212219,627.019531 
	C797.448364,629.004272 793.684570,630.988953 789.996887,632.988708 
	C789.996887,632.988708 790.008362,632.911987 789.304810,633.023560 
	C788.583008,633.365417 787.861206,633.707275 786.771240,634.664490 
	C775.896606,641.156616 765.021912,647.648743 753.376831,654.008484 
	C749.563721,656.651123 745.750610,659.293762 742.000000,662.000000 
	C742.000000,662.000000 741.936890,661.936768 741.217529,661.996216 
	C739.207581,664.050842 737.197632,666.105469 734.773010,668.722778 
	C729.039856,673.084229 723.293396,677.428284 717.584717,681.821472 
	C716.411743,682.724182 715.416016,683.853516 714.276489,684.803955 
	C711.516724,687.105896 708.577942,689.213867 705.978882,691.681824 
	C703.368103,694.160828 701.197083,697.099182 698.622986,699.621582 
	C695.377686,702.801819 691.588867,705.476562 688.621582,708.881104 
	C682.482971,715.924255 676.741821,723.313232 670.819641,730.545654 
	C666.067627,736.348938 660.827454,741.818115 656.640503,748.002014 
	C651.446777,755.673096 647.522034,764.204712 642.312195,771.863342 
	C635.238464,782.262024 630.006226,793.573120 624.589722,804.810547 
	C623.070801,807.961792 622.224976,811.437500 621.070374,814.764343 
	C621.479919,814.965088 621.889465,815.165833 622.299011,815.366577 
	C623.215393,813.970032 624.307434,812.656677 625.015564,811.161438 
	C627.205811,806.536316 629.099121,801.766296 631.392151,797.195190 
	C633.793396,792.408264 636.488647,787.766663 639.118896,783.097229 
	C642.800781,776.560913 646.252563,769.869202 650.345093,763.597839 
	C653.820679,758.271790 658.043396,753.430481 661.972961,748.403931 
	C670.426208,737.591064 678.570190,726.511780 687.484375,716.092102 
	C693.770508,708.744324 701.007874,702.189880 708.017090,695.486694 
	C715.312439,688.509705 722.419922,681.231812 730.374573,675.073792 
	C741.475525,666.480164 753.122009,658.553467 764.859741,650.835266 
	C771.200378,646.665710 778.216431,643.523438 785.293396,640.288574 
	C785.430054,640.395630 785.566650,640.502686 785.248352,641.177551 
	C779.711731,646.024536 773.055725,649.252747 766.344421,653.223999 
	C768.757263,654.065796 770.268555,654.593018 771.779785,655.120300 
	C771.839478,655.733215 771.899109,656.346130 771.958740,656.959045 
	C765.804321,658.852234 759.649963,660.745483 753.391907,662.670593 
	C754.709717,663.010193 755.848999,663.303711 756.988281,663.597290 
	C751.159790,666.113831 744.614197,666.376709 739.523865,672.019409 
	C742.384033,672.019409 744.386963,672.019409 746.389832,672.019409 
	C746.452759,672.381592 746.515686,672.743713 746.578613,673.105896 
	C743.477173,673.834106 740.375793,674.562317 736.198975,675.542969 
	C738.835999,675.940857 740.358398,676.170593 742.756714,676.532410 
	C741.456177,678.340698 740.751465,679.805542 739.629639,680.799683 
	C733.452820,686.273682 727.054077,691.501404 720.966675,697.070679 
	C715.695190,701.893555 710.584717,706.916199 705.699707,712.128540 
	C702.895203,715.120850 700.904480,718.868286 698.150146,721.916809 
	C693.787964,726.744873 688.560242,730.868103 684.655945,736.015564 
	C677.825745,745.020630 672.077209,754.848450 665.211792,763.823853 
	C658.603210,772.463318 651.127869,780.437683 644.117554,788.775085 
	C643.442200,789.578308 643.445740,790.919312 642.988708,791.945862 
	C641.932007,794.319519 640.826233,796.673523 639.664673,798.997742 
	C638.496582,801.335083 636.642029,803.502625 636.129883,805.961548 
	C634.643555,813.098083 632.415161,819.734619 627.064514,824.990479 
	C626.487183,825.557678 626.171509,826.525757 626.012695,827.360840 
	C625.414368,830.507568 625.775513,834.182800 624.241821,836.738708 
	C620.130615,843.590027 618.002014,850.670654 617.823975,858.684021 
	C617.741821,862.380920 616.206909,866.261292 614.523376,869.658447 
	C611.682312,875.391724 608.026184,880.716370 605.057434,886.393066 
	C603.548523,889.278259 601.108765,891.625732 598.999756,891.008545 
	C598.999756,891.008545 599.025635,891.044189 599.775818,890.779419 
	C600.812988,885.170227 601.850159,879.561035 602.998779,873.181702 
	C608.432983,855.527832 613.867249,837.873962 619.747314,818.771667 
	C618.317505,820.513184 617.346680,821.216980 617.052551,822.137146 
	C615.805054,826.039673 615.555298,830.500366 613.478577,833.850525 
	C608.612244,841.700439 607.008972,850.606445 604.015564,859.056458 
	C603.226257,861.284241 602.587158,863.573120 602.012207,865.867371 
	C600.849670,870.506653 599.852417,875.188049 598.646484,879.815491 
	C597.617065,883.765442 595.794250,887.605408 595.400391,891.600281 
	C594.888733,896.789368 593.909912,898.869507 588.992737,900.306030 
	C590.554626,895.362366 592.101318,890.466858 593.648010,885.571350 
	C593.208435,885.286072 592.768860,885.000854 592.329285,884.715576 
	C590.394287,885.495789 588.459351,886.276062 586.424500,887.096558 
	C586.057129,885.099792 585.763123,883.501892 585.469116,881.904053 
	C582.511047,885.768982 579.856567,889.644043 579.247681,893.817383 
	C578.628967,898.058289 578.802917,902.149902 574.768799,904.511169 
	C572.545776,904.728943 570.433838,905.255371 568.452576,906.091370 
	C566.551331,906.893494 564.864868,908.231750 562.939331,908.942261 
	C560.725464,909.759216 556.900635,909.513977 556.324341,910.838806 
	C554.671936,914.637329 552.767639,912.669006 550.612854,912.150574 
	C549.035339,911.771057 547.027893,911.194336 545.766113,911.821106 
	C539.392761,914.987061 533.200928,918.518494 527.000000,922.000000 
	C527.000000,922.000000 526.947815,921.918945 526.247559,921.994324 
	C524.807617,922.975220 523.367676,923.956116 521.995605,924.970032 
	C521.995605,924.970032 521.996826,924.894592 521.360962,925.002747 
	C520.884399,925.311829 520.407837,925.620972 519.998718,925.975708 
	C519.998718,925.975708 519.980225,925.896423 519.345642,925.991638 
z"/>
<path fill="#174577" opacity="1.000000" stroke="none" 
	d="
M488.251709,944.997864 
	C488.251709,944.997864 488.376007,944.917847 488.819397,945.031860 
	C490.180878,944.397583 491.099030,943.649292 492.017151,942.901001 
	C492.017120,942.900940 492.003235,942.997620 492.315430,943.132446 
	C493.414581,942.478943 494.201477,941.690613 494.988373,940.902283 
	C494.988373,940.902283 494.985107,940.979431 495.286621,941.171387 
	C499.391754,938.928223 503.195343,936.493103 506.998962,934.057983 
	C508.406219,933.117249 509.813477,932.176453 511.946106,931.221985 
	C512.770325,930.772400 512.869263,930.336548 512.968201,929.900635 
	C512.968201,929.900635 513.005249,929.980347 513.212585,930.334595 
	C514.928101,929.432678 516.436279,928.176453 517.944458,926.920288 
	C517.944458,926.920288 517.996094,926.998230 518.275696,927.351074 
	C519.030273,927.101379 519.505249,926.498901 519.980225,925.896423 
	C519.980225,925.896423 519.998718,925.975708 520.248047,926.343262 
	C520.997131,926.105408 521.496948,925.500000 521.996826,924.894592 
	C521.996826,924.894592 521.995605,924.970032 522.235718,925.291687 
	C523.966431,924.381897 525.457092,923.150391 526.947754,921.918945 
	C526.947815,921.918945 527.000000,922.000000 527.157532,922.347412 
	C528.358582,922.490112 529.402100,922.285400 530.600098,922.050415 
	C530.417725,922.671570 530.426208,923.096802 530.234558,923.226624 
	C527.754150,924.906433 525.245300,926.544189 522.743652,928.192627 
	C503.104919,941.132874 484.015503,954.804932 466.807587,970.913940 
	C454.353546,982.572693 442.768433,994.965027 435.233887,1010.561035 
	C425.586395,1030.530762 429.931854,1047.237427 448.389862,1059.555298 
	C461.685242,1068.427979 476.916168,1072.283569 492.385284,1075.084106 
	C532.048889,1082.265259 572.018677,1081.384277 611.952637,1078.611084 
	C677.049927,1074.090332 741.284363,1063.464355 805.014160,1049.730469 
	C911.147888,1026.858276 1015.008057,996.191528 1116.646484,958.032837 
	C1190.481689,930.312378 1262.708374,899.014954 1331.372314,859.983215 
	C1366.335938,840.108276 1400.223145,818.599060 1429.754639,790.968628 
	C1442.584961,778.964294 1454.415405,766.096436 1461.326660,749.550354 
	C1469.058594,731.039612 1464.177856,714.996948 1447.337524,704.001160 
	C1430.433716,692.963989 1411.201416,688.932251 1391.647583,686.251587 
	C1355.983154,681.362244 1320.191650,682.121033 1284.397217,684.527710 
	C1273.411987,685.266296 1262.446777,686.301270 1251.472412,687.200500 
	C1255.504028,685.885437 1259.552490,685.092773 1263.633301,684.539307 
	C1306.233887,678.761414 1348.947632,674.056519 1391.968262,673.283386 
	C1410.936768,672.942444 1429.926147,673.757690 1448.906006,674.048096 
	C1453.364990,674.595703 1457.823975,675.143372 1463.106201,675.800537 
	C1470.842285,676.904175 1477.808105,677.624390 1484.657715,678.946289 
	C1501.718994,682.239075 1518.479370,686.509155 1533.055664,696.629700 
	C1548.883057,707.618896 1554.250732,723.067627 1547.701660,741.154602 
	C1545.183838,748.107910 1540.893555,754.414978 1537.481689,761.052917 
	C1536.839355,762.302673 1536.532104,763.724609 1536.070312,765.067139 
	C1536.070312,765.067139 1536.000000,765.000000 1535.775024,764.723755 
	C1533.057495,767.987000 1530.565063,771.526489 1528.072510,775.066040 
	C1528.072510,775.066040 1528.004883,775.000000 1527.792114,774.702148 
	C1527.151978,774.650574 1526.628418,774.808838 1526.311035,775.155823 
	C1503.626221,799.947998 1476.777710,819.616516 1448.775391,837.793396 
	C1393.019897,873.985535 1333.663696,903.371155 1273.003296,930.261475 
	C1267.054321,932.898560 1261.150757,935.637939 1255.226074,938.329834 
	C1255.363525,938.786804 1255.500977,939.243774 1255.638306,939.700745 
	C1280.209717,935.509521 1303.984619,928.188049 1327.656982,919.390320 
	C1329.980957,942.478699 1330.500000,964.729187 1329.141602,987.074768 
	C1328.795776,992.763794 1326.839233,995.970642 1322.132568,998.899719 
	C1272.895508,1029.541504 1220.644043,1054.052856 1166.888916,1075.492065 
	C1096.872192,1103.417236 1025.293213,1126.336670 951.498535,1142.065796 
	C948.760742,1142.649414 946.059937,1143.406738 943.341919,1144.083008 
	C946.269897,1144.252930 949.088989,1144.019165 951.885803,1143.626587 
	C1023.447083,1133.577271 1093.509521,1116.928589 1162.498901,1095.613403 
	C1213.782349,1079.768799 1264.034058,1061.196777 1312.464600,1037.937744 
	C1341.794067,1023.851990 1369.983765,1007.839172 1395.780029,987.780396 
	C1396.081543,988.083374 1396.202148,988.204346 1396.229248,988.651978 
	C1391.981323,993.936951 1387.791016,998.865784 1383.693115,1003.870300 
	C1382.352905,1005.506897 1381.253052,1007.340210 1380.043335,1009.083557 
	C1380.043335,1009.083557 1380.012939,1009.011963 1379.741211,1008.799194 
	C1376.256592,1011.659973 1372.969604,1014.661194 1369.869385,1017.844360 
	C1368.710205,1019.034607 1367.986328,1020.648987 1367.064087,1022.069946 
	C1367.064087,1022.070007 1367.000000,1022.000000 1366.790039,1021.690674 
	C1364.406006,1023.612305 1362.232178,1025.843262 1360.058228,1028.074219 
	C1360.058228,1028.074219 1360.020386,1028.005127 1359.640625,1027.818604 
	C1359.184937,1028.120361 1359.108887,1028.608887 1359.032837,1029.097290 
	C1359.032837,1029.097290 1358.994873,1029.017578 1358.802734,1028.686523 
	C1355.759033,1030.929199 1352.907471,1033.502686 1350.055908,1036.076172 
	C1350.055908,1036.076172 1350.021606,1036.006592 1349.641357,1035.826904 
	C1349.185303,1036.130859 1349.109741,1036.614502 1349.034180,1037.098022 
	C1349.034180,1037.098022 1348.993408,1037.018188 1348.801636,1036.681885 
	C1344.676392,1039.007324 1340.717896,1041.633179 1336.815552,1044.340210 
	C1332.179688,1047.556030 1327.592163,1050.841553 1322.983643,1054.096802 
	C1322.983643,1054.096802 1322.995483,1053.999390 1322.685059,1053.884277 
	C1320.409546,1055.798340 1317.324585,1057.509033 1316.644409,1059.903076 
	C1302.424194,1109.952759 1278.960693,1155.125732 1245.990479,1195.375610 
	C1245.425293,1196.065552 1245.358765,1197.163696 1245.059570,1198.071289 
	C1245.059448,1198.071289 1245.004883,1198.000977 1244.762939,1197.748047 
	C1238.724365,1203.846191 1232.918335,1210.188599 1227.162109,1216.575928 
	C1226.897827,1216.869141 1227.081543,1217.565918 1227.056641,1218.074707 
	C1227.056519,1218.074707 1227.005981,1218.003906 1226.738281,1217.747803 
	C1225.654297,1218.692383 1224.837891,1219.892822 1224.021484,1221.093384 
	C1224.021484,1221.093384 1224.017456,1221.019165 1223.722778,1220.851807 
	C1221.303467,1223.148560 1219.178833,1225.612427 1217.054199,1228.076416 
	C1217.054199,1228.076416 1217.004883,1228.004883 1216.757568,1227.747681 
	C1210.679932,1233.024414 1204.849609,1238.558350 1199.019409,1244.092285 
	C1199.019409,1244.092285 1199.016479,1244.018311 1198.716309,1243.852295 
	C1191.250732,1249.211426 1184.074463,1254.722534 1176.943604,1260.291992 
	C1176.463135,1260.666992 1176.325317,1261.480835 1176.028198,1262.090576 
	C1176.028198,1262.090576 1176.016724,1262.017212 1175.733643,1261.811035 
	C1173.955200,1262.764404 1172.459595,1263.924194 1170.964111,1265.083862 
	C1170.964111,1265.083862 1170.979492,1264.979004 1170.671143,1264.965576 
	C1166.251465,1267.998657 1162.140137,1271.045166 1158.028809,1274.091675 
	C1158.028809,1274.091675 1158.015991,1274.017944 1157.731323,1273.796387 
	C1155.963989,1274.749146 1154.481445,1275.923706 1152.998779,1277.098145 
	C1152.998779,1277.098145 1153.005005,1277.007812 1152.688477,1276.872192 
	C1147.906494,1279.522095 1143.441162,1282.307495 1138.975830,1285.093018 
	C1138.975952,1285.093140 1138.989502,1284.993042 1138.679199,1284.905762 
	C1137.524536,1285.540649 1136.680176,1286.262817 1135.835693,1286.984863 
	C1135.835693,1286.984863 1135.646118,1287.126587 1135.156372,1286.997070 
	C1110.498779,1299.169189 1085.597656,1309.609253 1059.351074,1316.666016 
	C1053.193237,1318.321655 1047.089966,1320.179443 1040.961548,1321.944214 
	C1040.961548,1321.944214 1040.656372,1322.113037 1040.046387,1321.951660 
	C1038.285522,1321.959961 1037.123047,1322.073364 1035.985596,1322.307983 
	C995.946167,1330.565186 955.635437,1332.297729 915.077820,1327.098755 
	C903.893250,1325.664917 892.778992,1323.682251 881.632507,1321.951416 
	C881.632507,1321.951538 881.332031,1322.118408 881.026733,1321.697388 
	C873.335938,1319.376099 865.822266,1317.866699 858.591858,1315.494019 
	C843.646118,1310.589600 828.851196,1305.225464 813.994324,1300.050293 
	C812.432861,1299.634033 810.871338,1299.217896 809.103760,1298.130981 
	C802.821960,1294.628052 796.746338,1291.795776 790.670776,1288.963501 
	C790.670776,1288.963501 790.366516,1289.128784 790.198425,1288.700195 
	C783.989075,1285.187744 777.947876,1282.103882 771.906616,1279.019897 
	C771.906616,1279.019897 771.990784,1279.013306 772.082397,1278.731445 
	C771.774414,1278.306763 771.374878,1278.163696 770.975342,1278.020752 
	C770.745300,1278.005005 770.515320,1277.989380 769.769958,1277.790283 
	C768.978821,1277.443970 768.890015,1277.210327 768.988159,1276.905762 
	C768.988159,1276.905762 769.071167,1276.971069 768.985718,1276.642334 
	C768.237305,1276.221191 767.574463,1276.128784 766.911560,1276.036377 
	C766.911560,1276.036377 766.984192,1276.020752 767.121521,1275.718750 
	C753.809875,1265.719482 740.366577,1256.014038 726.888733,1246.356934 
	C726.408936,1246.013184 725.587891,1246.145508 724.925903,1246.055908 
	C724.925903,1246.055908 724.997009,1246.006958 725.236145,1245.750732 
	C724.287231,1244.657593 723.099182,1243.820801 721.911133,1242.984009 
	C721.911133,1242.984009 722.015869,1242.985352 722.009521,1242.694092 
	C717.640808,1238.950806 713.278381,1235.498657 708.916016,1232.046509 
	C708.916016,1232.046509 708.986511,1232.014282 709.195312,1231.708618 
	C708.570740,1230.939331 707.737366,1230.475708 706.903992,1230.012207 
	C706.903992,1230.012207 706.987488,1230.011230 707.122559,1229.698730 
	C706.141174,1228.598755 705.024658,1227.811279 703.908142,1227.023682 
	C703.908142,1227.023682 703.981445,1227.016479 704.158569,1226.725342 
	C702.526306,1224.955444 700.716980,1223.476440 698.907593,1221.997559 
	C698.907593,1221.997559 699.003845,1221.997437 699.056335,1221.695068 
	C691.989197,1213.475342 684.880249,1205.548340 677.719482,1197.668579 
	C677.346619,1197.258179 676.531616,1197.249512 675.922485,1197.053711 
	C675.922485,1197.053711 675.994751,1197.002441 676.271729,1196.768555 
	C669.257568,1186.694824 661.976135,1176.848022 654.647095,1167.036743 
	C654.278259,1166.542847 653.497253,1166.356689 652.908203,1166.027222 
	C652.908203,1166.027222 652.981201,1166.015015 653.187866,1165.721924 
	C647.250244,1155.232788 641.105957,1145.036743 634.616516,1134.268066 
	C690.617065,1122.004150 744.337036,1106.277466 796.570862,1085.502808 
	C792.925659,1085.222046 789.458618,1085.666748 786.019775,1086.271729 
	C742.263306,1093.970215 698.619812,1102.391479 654.728149,1109.218750 
	C606.750366,1116.681519 558.379883,1120.598267 509.764862,1120.543823 
	C500.692841,1120.533569 491.621521,1119.937500 482.549866,1119.611816 
	C475.944702,1119.401123 469.339508,1119.190430 462.153870,1118.604614 
	C445.220032,1115.059082 428.866699,1111.888672 412.513367,1108.718262 
	C412.196198,1108.768066 411.878998,1108.817871 410.899475,1108.731934 
	C409.963684,1108.443359 409.878021,1108.219116 409.980133,1107.923340 
	C409.980133,1107.923340 410.073151,1107.966675 409.893616,1107.705566 
	C403.445618,1104.628296 397.177094,1101.812256 390.908600,1098.996094 
	C390.908600,1098.996094 391.010437,1098.990234 390.995575,1098.688232 
	C388.961700,1097.275757 386.942688,1096.165283 384.923676,1095.054932 
	C384.923676,1095.054932 384.995270,1095.004883 385.250671,1094.760986 
	C370.652100,1081.499146 368.242310,1065.836792 375.722198,1048.127075 
	C376.880951,1045.383423 378.208771,1042.689575 379.697479,1040.110718 
	C387.151428,1027.198364 397.044586,1016.275635 407.682098,1005.956482 
	C409.601044,1004.094910 411.226166,1001.930481 412.986938,999.905884 
	C412.986938,999.905884 412.989105,999.988770 413.294128,1000.112854 
	C426.896393,989.845154 440.200470,979.462158 453.470398,969.035645 
	C454.128662,968.518372 454.489838,967.622986 454.989441,966.903748 
	C454.989441,966.903748 454.987122,966.982910 455.288330,967.156494 
	C459.714081,964.190796 463.838593,961.051453 467.963104,957.912170 
	C467.963104,957.912170 467.984894,957.985535 468.265900,958.217529 
	C474.696503,954.267273 480.846100,950.085022 486.995667,945.902832 
	C486.995667,945.902771 486.993652,945.991882 487.322510,946.119019 
	C487.851471,945.830017 488.051575,945.413940 488.251709,944.997864 
z"/>
<path fill="#F79425" opacity="1.000000" stroke="none" 
	d="
M1097.996704,618.302734 
	C1098.409302,618.472473 1098.821899,618.642151 1100.016113,619.247681 
	C1109.830688,623.687439 1118.863647,627.691284 1127.896606,631.695190 
	C1127.896606,631.695190 1128.321533,631.887756 1128.535645,632.081787 
	C1128.749634,632.275818 1129.081055,632.268738 1129.081055,632.268738 
	C1129.378174,632.383362 1129.675415,632.498047 1130.452393,632.962646 
	C1131.221313,633.333008 1131.489624,633.412781 1131.736938,633.551758 
	C1132.071533,633.703491 1132.406006,633.855286 1133.207153,634.228516 
	C1133.673706,634.449890 1133.635010,634.414490 1133.635010,634.414490 
	C1133.820068,634.534485 1134.005127,634.654480 1134.539062,635.099976 
	C1135.227661,635.617004 1135.567505,635.808533 1135.907349,636.000061 
	C1136.254883,636.180603 1136.602539,636.361084 1137.422607,636.968445 
	C1137.895142,637.395325 1138.175781,637.290588 1138.175781,637.290588 
	C1138.444946,637.400513 1138.713989,637.510376 1139.366455,637.959351 
	C1139.749878,638.298401 1140.172852,638.274292 1140.172852,638.274292 
	C1140.442383,638.388794 1140.711914,638.503296 1141.487793,639.120361 
	C1157.733765,650.166931 1173.505493,660.663818 1189.156738,671.337097 
	C1190.526245,672.270996 1191.105957,674.363098 1191.685303,675.964844 
	C1187.890503,673.597046 1184.463135,671.181580 1181.035645,668.766113 
	C1183.291382,674.009705 1177.986572,670.899902 1177.488647,672.697937 
	C1178.007812,673.575195 1178.414429,674.718567 1179.190063,675.491516 
	C1182.090820,678.381531 1185.198608,681.066406 1188.048828,684.002930 
	C1189.309448,685.301697 1189.982544,687.158020 1191.193237,688.520508 
	C1196.435059,694.419678 1204.300415,694.973938 1211.002075,697.859619 
	C1212.993164,698.717041 1215.701172,697.909668 1218.438232,697.812500 
	C1219.554321,698.401917 1220.361694,698.994812 1221.064453,699.693115 
	C1258.107056,736.498352 1285.953979,779.311584 1304.890869,827.955383 
	C1308.380981,836.920776 1309.193848,835.603455 1300.537354,840.306396 
	C1251.450317,866.975037 1200.711792,890.132812 1148.898438,910.930603 
	C1073.863770,941.049438 997.299438,966.675659 919.356873,988.169861 
	C860.112183,1004.507751 800.412231,1018.816650 739.857483,1029.558105 
	C695.882019,1037.358521 651.700562,1043.248413 607.197632,1046.865601 
	C603.356934,1047.177734 601.642273,1046.151123 600.774780,1042.076904 
	C592.953613,1005.344604 589.998230,968.267151 593.210693,930.846375 
	C594.356873,917.494568 597.052673,904.275818 599.041138,890.996338 
	C601.108765,891.625732 603.548523,889.278259 605.057434,886.393066 
	C608.026184,880.716370 611.682312,875.391724 614.523376,869.658447 
	C616.206909,866.261292 617.741821,862.380920 617.823975,858.684021 
	C618.002014,850.670654 620.130615,843.590027 624.241821,836.738708 
	C625.775513,834.182800 625.414368,830.507568 626.012695,827.360840 
	C626.171509,826.525757 626.487183,825.557678 627.064514,824.990479 
	C632.415161,819.734619 634.643555,813.098083 636.129883,805.961548 
	C636.642029,803.502625 638.496582,801.335083 639.664673,798.997742 
	C640.826233,796.673523 641.932007,794.319519 642.988708,791.945862 
	C643.445740,790.919312 643.442200,789.578308 644.117554,788.775085 
	C651.127869,780.437683 658.603210,772.463318 665.211792,763.823853 
	C672.077209,754.848450 677.825745,745.020630 684.655945,736.015564 
	C688.560242,730.868103 693.787964,726.744873 698.150146,721.916809 
	C700.904480,718.868286 702.895203,715.120850 705.699707,712.128540 
	C710.584717,706.916199 715.695190,701.893555 720.966675,697.070679 
	C727.054077,691.501404 733.452820,686.273682 739.629639,680.799683 
	C740.751465,679.805542 741.456177,678.340698 742.756714,676.532410 
	C740.358398,676.170593 738.835999,675.940857 736.198975,675.542969 
	C740.375793,674.562317 743.477173,673.834106 746.578613,673.105896 
	C746.515686,672.743713 746.452759,672.381592 746.389832,672.019409 
	C744.386963,672.019409 742.384033,672.019409 739.523865,672.019409 
	C744.614197,666.376709 751.159790,666.113831 756.988281,663.597290 
	C755.848999,663.303711 754.709717,663.010193 753.391907,662.670593 
	C759.649963,660.745483 765.804321,658.852234 771.958740,656.959045 
	C771.899109,656.346130 771.839478,655.733215 771.779785,655.120300 
	C770.268555,654.593018 768.757263,654.065796 766.344421,653.223999 
	C773.055725,649.252747 779.711731,646.024536 785.745117,640.658447 
	C787.864502,639.575317 789.487183,639.011353 791.109802,638.447327 
	C790.830566,637.855896 790.551270,637.264404 790.272034,636.672974 
	C788.490601,637.754578 786.709229,638.836121 784.927734,639.917725 
	C778.216431,643.523438 771.200378,646.665710 764.859741,650.835266 
	C753.122009,658.553467 741.475525,666.480164 730.374573,675.073792 
	C722.419922,681.231812 715.312439,688.509705 708.017090,695.486694 
	C701.007874,702.189880 693.770508,708.744324 687.484375,716.092102 
	C678.570190,726.511780 670.426208,737.591064 661.972961,748.403931 
	C658.043396,753.430481 653.820679,758.271790 650.345093,763.597839 
	C646.252563,769.869202 642.800781,776.560913 639.118896,783.097229 
	C636.488647,787.766663 633.793396,792.408264 631.392151,797.195190 
	C629.099121,801.766296 627.205811,806.536316 625.015564,811.161438 
	C624.307434,812.656677 623.215393,813.970032 622.299011,815.366577 
	C621.889465,815.165833 621.479919,814.965088 621.070374,814.764343 
	C622.224976,811.437500 623.070801,807.961792 624.589722,804.810547 
	C630.006226,793.573120 635.238464,782.262024 642.312195,771.863342 
	C647.522034,764.204712 651.446777,755.673096 656.640503,748.002014 
	C660.827454,741.818115 666.067627,736.348938 670.819641,730.545654 
	C676.741821,723.313232 682.482971,715.924255 688.621582,708.881104 
	C691.588867,705.476562 695.377686,702.801819 698.622986,699.621582 
	C701.197083,697.099182 703.368103,694.160828 705.978882,691.681824 
	C708.577942,689.213867 711.516724,687.105896 714.276489,684.803955 
	C715.416016,683.853516 716.411743,682.724182 717.584717,681.821472 
	C723.293396,677.428284 729.039856,673.084229 735.300293,668.309082 
	C737.863953,665.909119 739.900391,663.922913 741.936890,661.936768 
	C741.936890,661.936768 742.000000,662.000000 742.258057,662.259521 
	C746.393188,659.726379 750.270203,656.933655 754.147278,654.140930 
	C765.021912,647.648743 775.896606,641.156616 787.315369,634.393799 
	C788.575806,633.719360 789.292114,633.315674 790.008362,632.911987 
	C790.008362,632.911987 789.996887,632.988708 790.329346,633.096436 
	C794.440186,631.106506 798.218567,629.008850 801.996887,626.911194 
	C801.996887,626.911194 801.992554,626.983154 802.321655,627.129089 
	C806.908997,625.437500 811.096741,623.408447 815.442749,621.809570 
	C821.227478,619.681519 827.135498,617.888367 832.917847,616.323303 
	C824.031860,620.537964 815.218506,624.380554 806.542480,628.163391 
	C809.273621,629.861206 811.681580,631.358154 813.807495,632.679749 
	C813.876831,631.998657 814.022766,630.564758 814.161560,629.201111 
	C815.756226,629.023010 817.041565,628.879395 818.326843,628.735840 
	C818.322937,628.552917 818.319092,628.369995 818.315186,628.187134 
	C816.961731,628.046692 815.608337,627.906250 814.254944,627.765808 
	C815.636597,626.689880 817.232422,626.235779 818.349426,626.774414 
	C821.795715,628.436340 824.974121,628.525452 828.584961,627.069336 
	C834.131104,624.832825 839.847107,622.994019 845.554016,621.185059 
	C854.397217,618.381897 863.157715,615.107971 872.197937,613.182983 
	C887.244568,609.979065 902.451721,607.471802 917.657959,605.098877 
	C925.262268,603.912292 933.012695,603.133850 940.699524,603.114197 
	C956.621277,603.073486 972.544983,603.647339 988.466492,604.029114 
	C989.562500,604.055359 990.630371,604.683960 991.738647,604.860779 
	C998.479370,605.936523 1005.225525,606.978943 1011.975647,607.993958 
	C1013.853699,608.276367 1016.027283,609.128723 1017.589966,608.513123 
	C1022.936829,606.406799 1028.205078,604.416870 1034.102539,604.983643 
	C1037.250488,605.286194 1040.412964,605.435425 1043.568970,605.653809 
	C1043.654541,605.351807 1043.739990,605.049744 1043.825562,604.747681 
	C1039.283203,603.414612 1034.740845,602.081482 1030.500488,600.300354 
	C1038.759521,598.528381 1048.751343,602.164734 1047.771362,605.582214 
	C1049.484009,605.852478 1051.246948,606.130615 1053.009766,606.408752 
	C1051.937012,606.964783 1050.894775,606.965515 1050.070557,606.541992 
	C1049.214355,606.101868 1048.569092,605.251465 1047.831421,604.580505 
	C1048.866455,604.099609 1049.867554,603.359009 1050.947144,603.217651 
	C1051.854004,603.098938 1052.858887,603.656372 1053.808960,603.951660 
	C1066.142700,607.784912 1078.474365,611.624878 1090.806641,615.463135 
	C1092.869995,616.306946 1094.933350,617.150757 1097.404053,618.202515 
	C1097.811523,618.410400 1097.996704,618.302734 1097.996704,618.302734 
M878.057007,707.273926 
	C878.250732,708.757385 878.383972,710.251648 878.647339,711.722656 
	C882.231873,731.748352 898.240173,745.848694 919.193420,747.457886 
	C937.838745,748.889832 955.980835,736.022400 962.373230,716.832275 
	C968.274231,699.117249 960.447510,677.902161 943.838928,667.753967 
	C929.805481,659.179321 915.057983,658.484375 900.641357,666.463806 
	C885.191650,675.015076 877.717468,688.605103 878.057007,707.273926 
M1056.460327,825.793884 
	C1059.455078,818.584900 1059.790283,811.355103 1057.056763,803.937622 
	C1051.668579,789.316345 1035.272949,781.021118 1020.628418,785.650940 
	C1005.393860,790.467224 996.531006,806.300232 1000.558044,821.505737 
	C1003.724731,833.463013 1013.633240,842.047180 1026.084106,843.620239 
	C1038.259277,845.158447 1049.666382,838.646545 1056.460327,825.793884 
M1070.854248,710.669739 
	C1068.596924,719.805725 1071.396851,727.004272 1078.831543,731.178467 
	C1085.481445,734.912109 1093.680420,733.807129 1098.999756,728.314148 
	C1104.124512,723.022156 1105.461182,716.714600 1102.842529,709.908264 
	C1100.284424,703.259094 1095.062378,699.465210 1087.987671,699.125549 
	C1080.038330,698.743835 1074.369873,702.621338 1070.854248,710.669739 
z"/>
<path fill="#FEFEFD" opacity="1.000000" stroke="none" 
	d="
M1192.052490,675.917236 
	C1191.105957,674.363098 1190.526245,672.270996 1189.156738,671.337097 
	C1173.505493,660.663818 1157.733765,650.166931 1141.798340,639.431152 
	C1145.765137,641.019470 1150.115845,642.460632 1154.052979,644.646973 
	C1163.676880,649.991394 1173.162964,655.591919 1182.583618,661.289124 
	C1185.106323,662.814819 1186.967651,665.479431 1189.539429,666.867493 
	C1192.830444,668.643799 1196.579224,669.549255 1200.046875,671.026917 
	C1204.185547,672.790833 1208.112183,675.130432 1212.354492,676.553650 
	C1217.802856,678.381531 1223.465698,679.578186 1229.052246,680.982971 
	C1232.002075,681.724670 1234.990967,682.309509 1237.953613,683.002441 
	C1249.786743,685.770203 1261.282349,683.197693 1272.885010,681.131226 
	C1279.771851,679.904724 1286.841553,679.725830 1293.819580,678.986572 
	C1305.954102,677.700928 1318.081055,676.345520 1330.211792,675.024109 
	C1330.541626,674.988220 1330.877319,675.007874 1331.210205,674.998474 
	C1340.754639,674.728821 1350.317871,674.744568 1359.838379,674.113953 
	C1370.862793,673.383667 1381.831665,671.548645 1392.857544,671.180603 
	C1404.420288,670.794495 1416.021973,671.576965 1427.606567,671.856750 
	C1428.262085,671.872559 1428.915161,671.971741 1429.570557,672.013428 
	C1435.950684,672.419128 1442.331177,672.820862 1448.808838,673.635925 
	C1429.926147,673.757690 1410.936768,672.942444 1391.968262,673.283386 
	C1348.947632,674.056519 1306.233887,678.761414 1263.633301,684.539307 
	C1259.552490,685.092773 1255.504028,685.885437 1251.472412,687.200500 
	C1262.446777,686.301270 1273.411987,685.266296 1284.397217,684.527710 
	C1320.191650,682.121033 1355.983154,681.362244 1391.647583,686.251587 
	C1411.201416,688.932251 1430.433716,692.963989 1447.337524,704.001160 
	C1464.177856,714.996948 1469.058594,731.039612 1461.326660,749.550354 
	C1454.415405,766.096436 1442.584961,778.964294 1429.754639,790.968628 
	C1400.223145,818.599060 1366.335938,840.108276 1331.372314,859.983215 
	C1262.708374,899.014954 1190.481689,930.312378 1116.646484,958.032837 
	C1015.008057,996.191528 911.147888,1026.858276 805.014160,1049.730469 
	C741.284363,1063.464355 677.049927,1074.090332 611.952637,1078.611084 
	C572.018677,1081.384277 532.048889,1082.265259 492.385284,1075.084106 
	C476.916168,1072.283569 461.685242,1068.427979 448.389862,1059.555298 
	C429.931854,1047.237427 425.586395,1030.530762 435.233887,1010.561035 
	C442.768433,994.965027 454.353546,982.572693 466.807587,970.913940 
	C484.015503,954.804932 503.104919,941.132874 522.743652,928.192627 
	C525.245300,926.544189 527.754150,924.906433 530.234558,923.226624 
	C530.426208,923.096802 530.417725,922.671570 530.600098,922.050415 
	C529.402100,922.285400 528.358582,922.490112 527.130249,922.308228 
	C533.200928,918.518494 539.392761,914.987061 545.766113,911.821106 
	C547.027893,911.194336 549.035339,911.771057 550.612854,912.150574 
	C552.767639,912.669006 554.671936,914.637329 556.324341,910.838806 
	C556.900635,909.513977 560.725464,909.759216 562.939331,908.942261 
	C564.864868,908.231750 566.551331,906.893494 568.452576,906.091370 
	C570.433838,905.255371 572.545776,904.728943 574.768799,904.511169 
	C578.802917,902.149902 578.628967,898.058289 579.247681,893.817383 
	C579.856567,889.644043 582.511047,885.768982 585.469116,881.904053 
	C585.763123,883.501892 586.057129,885.099792 586.424500,887.096558 
	C588.459351,886.276062 590.394287,885.495789 592.329285,884.715576 
	C592.768860,885.000854 593.208435,885.286072 593.648010,885.571350 
	C592.101318,890.466858 590.554626,895.362366 588.992737,900.306030 
	C593.909912,898.869507 594.888733,896.789368 595.400391,891.600281 
	C595.794250,887.605408 597.617065,883.765442 598.646484,879.815491 
	C599.852417,875.188049 600.849670,870.506653 602.012207,865.867371 
	C602.587158,863.573120 603.226257,861.284241 604.015564,859.056458 
	C607.008972,850.606445 608.612244,841.700439 613.478577,833.850525 
	C615.555298,830.500366 615.805054,826.039673 617.052551,822.137146 
	C617.346680,821.216980 618.317505,820.513184 619.747314,818.771667 
	C613.867249,837.873962 608.432983,855.527832 602.630249,873.735474 
	C601.182983,879.874207 600.104309,885.459229 599.025635,891.044189 
	C599.025635,891.044189 598.999756,891.008545 599.020447,891.002441 
	C597.052673,904.275818 594.356873,917.494568 593.210693,930.846375 
	C589.998230,968.267151 592.953613,1005.344604 600.774780,1042.076904 
	C601.642273,1046.151123 603.356934,1047.177734 607.197632,1046.865601 
	C651.700562,1043.248413 695.882019,1037.358521 739.857483,1029.558105 
	C800.412231,1018.816650 860.112183,1004.507751 919.356873,988.169861 
	C997.299438,966.675659 1073.863770,941.049438 1148.898438,910.930603 
	C1200.711792,890.132812 1251.450317,866.975037 1300.537354,840.306396 
	C1309.193848,835.603455 1308.380981,836.920776 1304.890869,827.955383 
	C1285.953979,779.311584 1258.107056,736.498352 1221.064453,699.693115 
	C1220.361694,698.994812 1219.554321,698.401917 1218.422363,697.833984 
	C1218.049194,697.908142 1218.083740,697.948914 1218.091675,697.517944 
	C1217.407837,697.042297 1216.715942,696.997620 1216.012085,696.976440 
	C1216.000000,697.000000 1216.046875,696.975586 1216.356689,696.671021 
	C1216.120117,695.892761 1215.573730,695.419128 1215.014648,694.973145 
	C1215.002075,695.000916 1215.056763,694.973938 1215.120850,694.570312 
	C1214.131470,693.762207 1213.078125,693.357727 1212.012329,692.976318 
	C1212.000000,692.999390 1212.044312,692.971985 1212.323975,692.640015 
	C1211.416626,691.501892 1210.229736,690.695740 1209.032593,689.927856 
	C1209.022339,689.966187 1209.099976,689.950012 1209.279785,689.533936 
	C1208.524536,688.650879 1207.589355,688.184021 1206.550537,687.545532 
	C1206.043091,687.044800 1205.639404,686.715698 1205.328125,685.906250 
	C1204.638672,685.230835 1203.856812,685.035767 1203.067627,684.885925 
	C1203.060303,684.931091 1203.150879,684.917847 1203.377441,684.501587 
	C1202.552002,683.992310 1201.500244,683.899292 1200.356689,683.582764 
	C1199.927979,682.689270 1199.590820,682.019348 1199.324219,680.852173 
	C1198.608276,680.207214 1197.821777,680.059631 1197.017212,679.944397 
	C1196.999023,679.976746 1197.070557,679.956909 1197.229736,679.580078 
	C1196.943481,679.107056 1196.498291,679.010803 1196.055664,678.954712 
	C1196.058472,678.994873 1196.114014,678.936584 1196.394897,678.582275 
	C1195.125366,677.452820 1193.574829,676.677734 1192.013550,675.938354 
	C1192.002686,675.973999 1192.052490,675.917236 1192.052490,675.917236 
M538.643738,927.610962 
	C537.736633,927.316162 536.829529,927.021423 535.922424,926.726685 
	C536.322632,926.323975 536.722900,925.921326 537.123108,925.518616 
	C539.130981,924.984009 541.138855,924.449341 543.146729,923.914734 
	C543.198914,923.476685 543.251099,923.038635 543.303345,922.600647 
	C541.880737,921.893188 539.867126,920.197021 539.130676,920.637329 
	C534.028687,923.687500 529.192444,927.182251 524.270874,930.534302 
	C524.364807,930.757629 524.458679,930.980957 524.552612,931.204285 
	C529.019897,930.127625 533.487122,929.051025 538.643738,927.610962 
z"/>
<path fill="#FEFEFD" opacity="1.000000" stroke="none" 
	d="
M1395.599365,987.598450 
	C1369.983765,1007.839172 1341.794067,1023.851990 1312.464600,1037.937744 
	C1264.034058,1061.196777 1213.782349,1079.768799 1162.498901,1095.613403 
	C1093.509521,1116.928589 1023.447083,1133.577271 951.885803,1143.626587 
	C949.088989,1144.019165 946.269897,1144.252930 943.341919,1144.083008 
	C946.059937,1143.406738 948.760742,1142.649414 951.498535,1142.065796 
	C1025.293213,1126.336670 1096.872192,1103.417236 1166.888916,1075.492065 
	C1220.644043,1054.052856 1272.895508,1029.541504 1322.132568,998.899719 
	C1326.839233,995.970642 1328.795776,992.763794 1329.141602,987.074768 
	C1330.500000,964.729187 1329.980957,942.478699 1327.656982,919.390320 
	C1303.984619,928.188049 1280.209717,935.509521 1255.638306,939.700745 
	C1255.500977,939.243774 1255.363525,938.786804 1255.226074,938.329834 
	C1261.150757,935.637939 1267.054321,932.898560 1273.003296,930.261475 
	C1333.663696,903.371155 1393.019897,873.985535 1448.775391,837.793396 
	C1476.777710,819.616516 1503.626221,799.947998 1526.311035,775.155823 
	C1526.628418,774.808838 1527.151978,774.650574 1527.822998,774.737183 
	C1527.433228,776.158447 1527.027954,777.507507 1526.129883,778.293396 
	C1520.087524,783.580811 1513.940552,788.748596 1507.827393,793.955078 
	C1508.481445,794.712158 1509.135498,795.469177 1509.789551,796.226257 
	C1513.045532,794.419189 1516.301514,792.612183 1520.086182,790.511780 
	C1522.940308,788.422180 1526.306519,785.957764 1529.672607,783.493347 
	C1530.078491,783.548096 1530.484253,783.602844 1530.890137,783.657593 
	C1530.330566,785.232056 1529.928711,786.886841 1529.176636,788.363281 
	C1527.843384,790.980286 1526.579590,793.711182 1524.780640,795.995911 
	C1521.209473,800.531555 1517.223511,804.738220 1513.557251,809.202637 
	C1512.168213,810.894104 1511.434448,813.143982 1509.978027,814.756409 
	C1504.519897,820.799438 1499.880127,827.503357 1493.217407,832.574951 
	C1488.197144,836.396301 1484.436401,841.837524 1479.916138,846.358765 
	C1473.556763,852.719666 1465.895752,858.136475 1460.943359,865.420227 
	C1457.668945,870.236206 1453.413940,873.771851 1450.031982,878.217468 
	C1446.594116,882.736328 1443.194702,887.351562 1440.424683,892.287292 
	C1438.672974,895.408508 1438.196289,899.226318 1436.981079,902.672913 
	C1435.662964,906.411255 1434.435303,910.225952 1432.645142,913.740906 
	C1430.816406,917.331726 1431.156128,920.097351 1432.955566,923.791809 
	C1434.801392,927.581360 1436.411499,931.354187 1435.593262,936.727356 
	C1433.979492,947.322937 1426.291260,953.884399 1422.094360,962.604736 
	C1420.930420,965.023132 1420.354492,967.776794 1418.929077,970.005920 
	C1416.182739,974.300720 1413.035156,978.339844 1410.020142,982.460327 
	C1409.638550,982.982117 1409.128540,983.576965 1408.555420,983.766785 
	C1397.570801,987.401794 1393.585693,998.602600 1385.343750,1005.189331 
	C1383.793945,1006.427734 1382.294189,1007.728577 1380.407349,1009.042114 
	C1381.253052,1007.340210 1382.352905,1005.506897 1383.693115,1003.870300 
	C1387.791016,998.865784 1391.981323,993.936951 1396.491577,988.454468 
	C1396.765869,987.555420 1396.684326,987.180664 1396.602783,986.805908 
	C1396.268188,987.070068 1395.933838,987.334290 1395.599365,987.598450 
z"/>
<path fill="#FEFEFD" opacity="1.000000" stroke="none" 
	d="
M482.968933,1119.533936 
	C491.621521,1119.937500 500.692841,1120.533569 509.764862,1120.543823 
	C558.379883,1120.598267 606.750366,1116.681519 654.728149,1109.218750 
	C698.619812,1102.391479 742.263306,1093.970215 786.019775,1086.271729 
	C789.458618,1085.666748 792.925659,1085.222046 796.570862,1085.502808 
	C744.337036,1106.277466 690.617065,1122.004150 634.616516,1134.268066 
	C641.105957,1145.036743 647.250244,1155.232788 653.179443,1165.757935 
	C650.847961,1163.765869 648.280457,1161.714355 646.701660,1159.072021 
	C642.341187,1151.773926 638.676453,1144.051880 634.167175,1136.854248 
	C631.805725,1133.085083 633.851257,1132.456787 635.784302,1131.794556 
	C631.235352,1129.561279 626.193909,1127.100342 621.174622,1124.594971 
	C620.766235,1124.391113 620.231506,1123.885498 620.226135,1123.513306 
	C620.156860,1118.731445 616.892395,1118.684814 612.877014,1119.041016 
	C614.103455,1118.067017 614.887756,1117.444214 616.601440,1116.083252 
	C610.675049,1116.431030 605.797791,1116.571167 600.952698,1117.042114 
	C595.955566,1117.527954 591.004822,1118.733765 586.007141,1118.923584 
	C573.826538,1119.386597 561.630005,1119.418823 549.440857,1119.670776 
	C531.339966,1120.044556 513.241028,1120.553223 495.138519,1120.779785 
	C491.227814,1120.828735 487.305176,1119.922485 482.968933,1119.533936 
z"/>
<path fill="#FEFEFD" opacity="1.000000" stroke="none" 
	d="
M1245.424316,1198.032959 
	C1245.358765,1197.163696 1245.425293,1196.065552 1245.990479,1195.375610 
	C1278.960693,1155.125732 1302.424194,1109.952759 1316.644409,1059.903076 
	C1317.324585,1057.509033 1320.409546,1055.798340 1322.733765,1053.889282 
	C1317.622925,1057.699463 1318.259766,1064.246460 1316.177856,1069.444214 
	C1312.879639,1077.679321 1311.151855,1086.544922 1307.836182,1094.771362 
	C1304.558228,1102.904785 1300.026001,1110.524780 1296.248535,1118.467285 
	C1293.191284,1124.894897 1290.884277,1131.715454 1287.436768,1137.912231 
	C1283.127319,1145.657837 1278.053711,1152.984497 1273.193848,1160.416016 
	C1267.902710,1168.507202 1262.664551,1176.644409 1257.043091,1184.503662 
	C1253.645630,1189.253784 1249.563477,1193.514160 1245.424316,1198.032959 
z"/>
<path fill="#F79425" opacity="1.000000" stroke="none" 
	d="
M848.147949,608.952515 
	C861.208008,605.623413 874.249451,602.218567 887.335876,598.996399 
	C894.099182,597.331116 900.915466,595.848083 907.759094,594.554260 
	C912.065125,593.740173 916.453125,593.241577 920.827698,592.935669 
	C927.722046,592.453674 934.637390,592.278198 941.539612,591.897400 
	C942.296265,591.855652 943.025574,591.317810 944.378906,591.445618 
	C948.246948,591.828003 951.507385,591.648315 954.759644,591.743591 
	C968.279907,592.140015 981.797668,592.619202 995.316345,593.067993 
	C998.777954,593.362000 1002.239624,593.656067 1006.049072,594.221436 
	C1006.396851,594.492737 1006.449341,594.865601 1006.053223,594.960938 
	C994.402771,594.699219 983.149170,594.314148 971.893616,594.000000 
	C967.729126,593.883728 963.555664,593.802307 959.393616,593.934448 
	C948.150452,594.291321 936.866699,594.295715 925.683289,595.341003 
	C915.197937,596.321167 904.767273,598.176758 894.410095,600.157227 
	C883.665527,602.211792 873.008118,604.754639 862.370056,607.322083 
	C855.507996,608.978149 848.749512,611.063293 841.902588,612.581909 
	C843.956360,611.122559 846.052185,610.037537 848.147949,608.952515 
z"/>
<path fill="#FEFEFD" opacity="1.000000" stroke="none" 
	d="
M1536.393555,764.947021 
	C1536.532104,763.724609 1536.839355,762.302673 1537.481689,761.052917 
	C1540.893555,754.414978 1545.183838,748.107910 1547.701660,741.154602 
	C1554.250732,723.067627 1548.883057,707.618896 1533.055664,696.629700 
	C1518.479370,686.509155 1501.718994,682.239075 1484.657715,678.946289 
	C1477.808105,677.624390 1470.842285,676.904175 1463.512451,675.903564 
	C1467.999634,675.932007 1472.999023,675.368164 1477.786865,676.131775 
	C1486.642578,677.544312 1495.513062,679.248840 1504.125610,681.711975 
	C1517.561646,685.554688 1530.505615,690.923828 1540.872070,700.599487 
	C1546.209473,705.581177 1550.776001,711.657410 1550.950439,719.633606 
	C1551.087646,725.910461 1552.336792,732.584778 1550.656006,738.375427 
	C1548.436035,746.024292 1543.899170,753.014587 1540.212769,760.213501 
	C1539.346802,761.904602 1537.897583,763.297119 1536.393555,764.947021 
z"/>
<path fill="#FEFEFD" opacity="1.000000" stroke="none" 
	d="
M881.865234,1322.282593 
	C892.778992,1323.682251 903.893250,1325.664917 915.077820,1327.098755 
	C955.635437,1332.297729 995.946167,1330.565186 1035.985596,1322.307983 
	C1037.123047,1322.073364 1038.285522,1321.959961 1039.892212,1321.870117 
	C1035.962036,1323.300293 1031.655640,1325.376709 1027.175415,1325.867432 
	C1012.417786,1327.483643 997.614136,1328.804810 982.795654,1329.704834 
	C969.620850,1330.505127 956.363464,1331.413940 943.214355,1330.781372 
	C928.137939,1330.056030 913.123169,1327.825317 898.118408,1325.953979 
	C892.723328,1325.281128 887.435059,1323.752075 881.865234,1322.282593 
z"/>
<path fill="#FEFEFD" opacity="1.000000" stroke="none" 
	d="
M412.625061,999.955811 
	C411.226166,1001.930481 409.601044,1004.094910 407.682098,1005.956482 
	C397.044586,1016.275635 387.151428,1027.198364 379.697479,1040.110718 
	C378.208771,1042.689575 376.880951,1045.383423 375.722198,1048.127075 
	C368.242310,1065.836792 370.652100,1081.499146 385.225708,1094.796875 
	C378.997864,1092.707642 375.922607,1087.466797 373.096130,1082.355469 
	C368.908752,1074.783203 368.144379,1066.226074 370.260406,1058.094727 
	C371.661255,1052.711670 373.392181,1047.294067 376.466736,1042.061890 
	C380.057770,1035.950928 383.479279,1029.646484 388.104431,1024.422974 
	C395.683136,1015.863953 404.163300,1008.103149 412.625061,999.955811 
z"/>
<path fill="#FEFEFD" opacity="1.000000" stroke="none" 
	d="
M1006.449341,594.865601 
	C1006.449341,594.865601 1006.396851,594.492737 1006.434082,594.309082 
	C1014.456970,595.126648 1022.481689,595.890137 1030.417236,597.195618 
	C1038.466675,598.519775 1046.473999,600.184631 1054.412231,602.069214 
	C1060.114258,603.422913 1065.697266,605.304749 1071.287720,607.094116 
	C1077.166992,608.975952 1083.005127,610.990112 1088.824707,613.049927 
	C1089.631958,613.335632 1090.229126,614.215027 1090.864990,615.141357 
	C1078.474365,611.624878 1066.142700,607.784912 1053.808960,603.951660 
	C1052.858887,603.656372 1051.854004,603.098938 1050.947144,603.217651 
	C1049.867554,603.359009 1048.866455,604.099609 1047.831421,604.580505 
	C1048.569092,605.251465 1049.214355,606.101868 1050.070557,606.541992 
	C1050.894775,606.965515 1051.937012,606.964783 1053.009766,606.408752 
	C1051.246948,606.130615 1049.484009,605.852478 1047.771362,605.582214 
	C1048.751343,602.164734 1038.759521,598.528381 1030.399780,600.304321 
	C1029.417358,600.707703 1028.837646,600.659058 1028.720215,600.783752 
	C1029.412598,600.360107 1029.642578,599.763184 1029.872559,599.166321 
	C1028.594604,599.066956 1027.316406,598.967590 1026.018311,598.905884 
	C1025.998291,598.943542 1026.080688,598.921814 1026.055420,598.520630 
	C1025.142090,598.341980 1024.253906,598.564575 1023.013794,598.743286 
	C1017.257690,597.421509 1011.853516,596.143555 1006.449341,594.865601 
z"/>
<path fill="#FEFEFD" opacity="1.000000" stroke="none" 
	d="
M1041.392578,1321.947388 
	C1047.089966,1320.179443 1053.193237,1318.321655 1059.351074,1316.666016 
	C1085.597656,1309.609253 1110.498779,1299.169189 1135.072021,1286.913940 
	C1128.339233,1290.794434 1121.472412,1295.298340 1114.006348,1298.323486 
	C1098.303955,1304.686035 1082.394287,1310.588135 1066.353516,1316.043457 
	C1058.424316,1318.740234 1050.015503,1320.026245 1041.392578,1321.947388 
z"/>
<path fill="#FEFEFD" opacity="1.000000" stroke="none" 
	d="
M814.007812,1300.437256 
	C828.851196,1305.225464 843.646118,1310.589600 858.591858,1315.494019 
	C865.822266,1317.866699 873.335938,1319.376099 880.878235,1321.610840 
	C867.575012,1319.599365 854.242798,1317.064575 841.607422,1311.327026 
	C833.145935,1307.484497 824.040527,1305.062744 815.238892,1301.960693 
	C814.759094,1301.791626 814.423889,1301.212402 814.007812,1300.437256 
z"/>
<path fill="#FEFEFD" opacity="1.000000" stroke="none" 
	d="
M454.624268,966.960815 
	C454.489838,967.622986 454.128662,968.518372 453.470398,969.035645 
	C440.200470,979.462158 426.896393,989.845154 413.252686,1000.111511 
	C414.706299,997.720764 416.149567,994.998413 418.366943,993.267700 
	C429.200287,984.811462 440.229523,976.605652 451.227417,968.361816 
	C452.089478,967.715637 453.241730,967.456726 454.624268,966.960815 
z"/>
<path fill="#FEFEFD" opacity="1.000000" stroke="none" 
	d="
M724.961914,1246.417114 
	C725.587891,1246.145508 726.408936,1246.013184 726.888733,1246.356934 
	C740.366577,1256.014038 753.809875,1265.719482 767.119751,1275.755859 
	C763.382385,1274.069580 759.554871,1272.361938 756.228210,1269.960449 
	C745.717163,1262.372803 735.393799,1254.525391 724.961914,1246.417114 
z"/>
<path fill="#FEFEFD" opacity="1.000000" stroke="none" 
	d="
M412.850494,1108.830322 
	C428.866699,1111.888672 445.220032,1115.059082 461.699890,1118.551025 
	C445.229767,1117.441895 428.508606,1116.621216 412.850494,1108.830322 
z"/>
<path fill="#FEFEFD" opacity="1.000000" stroke="none" 
	d="
M652.956116,1166.418457 
	C653.497253,1166.356689 654.278259,1166.542847 654.647095,1167.036743 
	C661.976135,1176.848022 669.257568,1186.694824 676.244629,1196.803467 
	C674.503662,1196.092407 672.684814,1195.400391 671.692017,1194.085083 
	C665.689819,1186.132446 659.850464,1178.055908 654.037964,1169.962402 
	C653.422729,1169.105835 653.335999,1167.869629 652.956116,1166.418457 
z"/>
<path fill="#FEFEFD" opacity="1.000000" stroke="none" 
	d="
M847.936890,608.658569 
	C846.052185,610.037537 843.956360,611.122559 841.925049,612.594727 
	C841.989441,612.981812 841.984009,612.930359 841.622192,612.700806 
	C838.492126,613.641724 835.723938,614.812195 832.978638,615.990540 
	C833.001526,615.998474 832.990540,615.951355 832.990540,615.951294 
	C827.135498,617.888367 821.227478,619.681519 815.442749,621.809570 
	C811.096741,623.408447 806.908997,625.437500 802.286743,627.120117 
	C809.767517,623.321167 817.544250,619.519348 825.481628,616.089050 
	C830.660583,613.850830 836.059204,612.114075 841.387146,610.231018 
	C843.460876,609.498047 845.610657,608.980347 847.936890,608.658569 
z"/>
<path fill="#FEFEFD" opacity="1.000000" stroke="none" 
	d="
M675.963013,1197.426514 
	C676.531616,1197.249512 677.346619,1197.258179 677.719482,1197.668579 
	C684.880249,1205.548340 691.989197,1213.475342 699.057312,1221.743164 
	C696.276855,1219.835938 693.240906,1217.857300 690.881897,1215.263184 
	C685.739624,1209.608032 680.942017,1203.639526 675.963013,1197.426514 
z"/>
<path fill="#FEFEFD" opacity="1.000000" stroke="none" 
	d="
M995.165161,592.646729 
	C981.797668,592.619202 968.279907,592.140015 954.759644,591.743591 
	C951.507385,591.648315 948.246948,591.828003 944.775330,591.496948 
	C946.078186,590.740906 947.593323,590.060303 949.114319,590.046936 
	C959.762207,589.953186 970.417908,589.777710 981.056885,590.098633 
	C985.726379,590.239502 990.362671,591.482727 995.165161,592.646729 
z"/>
<path fill="#FEFEFD" opacity="1.000000" stroke="none" 
	d="
M1127.913940,631.338928 
	C1118.863647,627.691284 1109.830688,623.687439 1100.652588,619.454895 
	C1105.827759,621.104309 1111.243896,622.754456 1116.437622,624.934387 
	C1120.414429,626.603516 1124.110352,628.941895 1127.913940,631.338928 
z"/>
<path fill="#FEFEFD" opacity="1.000000" stroke="none" 
	d="
M1323.362183,1054.034912 
	C1327.592163,1050.841553 1332.179688,1047.556030 1336.815552,1044.340210 
	C1340.717896,1041.633179 1344.676392,1039.007324 1348.836548,1036.709961 
	C1340.622437,1042.707275 1332.181519,1048.340210 1323.362183,1054.034912 
z"/>
<path fill="#FEFEFD" opacity="1.000000" stroke="none" 
	d="
M1227.406494,1218.037109 
	C1227.081543,1217.565918 1226.897827,1216.869141 1227.162109,1216.575928 
	C1232.918335,1210.188599 1238.724365,1203.846191 1244.798462,1197.774780 
	C1243.331787,1200.539551 1241.809082,1203.223389 1239.795898,1205.467163 
	C1235.929688,1209.776489 1231.785278,1213.836182 1227.406494,1218.037109 
z"/>
<path fill="#FEFEFD" opacity="1.000000" stroke="none" 
	d="
M1176.388184,1262.041138 
	C1176.325317,1261.480835 1176.463135,1260.666992 1176.943604,1260.291992 
	C1184.074463,1254.722534 1191.250732,1249.211426 1198.753174,1243.855469 
	C1194.270264,1248.276855 1189.537964,1252.635132 1184.592773,1256.736450 
	C1182.182739,1258.735229 1179.375488,1260.255005 1176.388184,1262.041138 
z"/>
<path fill="#FEFEFD" opacity="1.000000" stroke="none" 
	d="
M1199.390625,1244.041260 
	C1204.849609,1238.558350 1210.679932,1233.024414 1216.793457,1227.772095 
	C1213.396240,1231.860107 1209.814575,1235.769653 1205.992432,1239.428101 
	C1204.148926,1241.192627 1201.852905,1242.484253 1199.390625,1244.041260 
z"/>
<path fill="#FEFEFD" opacity="1.000000" stroke="none" 
	d="
M486.627441,945.961304 
	C480.846100,950.085022 474.696503,954.267273 468.230438,958.203247 
	C474.029053,953.977844 480.144135,949.998840 486.627441,945.961304 
z"/>
<path fill="#FEFEFD" opacity="1.000000" stroke="none" 
	d="
M790.850952,1289.306885 
	C796.746338,1291.795776 802.821960,1294.628052 808.960815,1297.810059 
	C803.026489,1295.323242 797.028870,1292.486694 790.850952,1289.306885 
z"/>
<path fill="#FEFEFD" opacity="1.000000" stroke="none" 
	d="
M1367.413330,1022.035339 
	C1367.986328,1020.648987 1368.710205,1019.034607 1369.869385,1017.844360 
	C1372.969604,1014.661194 1376.256592,1011.659973 1379.777100,1008.813843 
	C1375.977539,1013.361084 1371.870117,1017.680908 1367.413330,1022.035339 
z"/>
<path fill="#FEFEFD" opacity="1.000000" stroke="none" 
	d="
M772.029297,1279.354492 
	C777.947876,1282.103882 783.989075,1285.187744 790.047607,1288.615234 
	C784.093933,1285.869019 778.122986,1282.779053 772.029297,1279.354492 
z"/>
<path fill="#FEFEFD" opacity="1.000000" stroke="none" 
	d="
M391.041046,1099.328857 
	C397.177094,1101.812256 403.445618,1104.628296 409.883789,1107.755981 
	C403.760162,1105.265625 397.466827,1102.463623 391.041046,1099.328857 
z"/>
<path fill="#FEFEFD" opacity="1.000000" stroke="none" 
	d="
M709.032654,1232.361572 
	C713.278381,1235.498657 717.640808,1238.950806 722.012207,1242.746460 
	C717.730652,1239.618896 713.439941,1236.147827 709.032654,1232.361572 
z"/>
<path fill="#FEFEFD" opacity="1.000000" stroke="none" 
	d="
M1139.359619,1285.023682 
	C1143.441162,1282.307495 1147.906494,1279.522095 1152.733521,1276.876709 
	C1148.644531,1279.662598 1144.193848,1282.308472 1139.359619,1285.023682 
z"/>
<path fill="#F79425" opacity="1.000000" stroke="none" 
	d="
M599.400757,890.911804 
	C600.104309,885.459229 601.182983,879.874207 602.574524,874.120544 
	C601.850159,879.561035 600.812988,885.170227 599.400757,890.911804 
z"/>
<path fill="#FEFEFD" opacity="1.000000" stroke="none" 
	d="
M467.599731,957.956787 
	C463.838593,961.051453 459.714081,964.190796 455.249023,967.151978 
	C459.017761,963.983032 463.127045,960.992188 467.599731,957.956787 
z"/>
<path fill="#FEFEFD" opacity="1.000000" stroke="none" 
	d="
M1158.394775,1274.044189 
	C1162.140137,1271.045166 1166.251465,1267.998657 1170.723999,1264.968750 
	C1166.977051,1267.989136 1162.868896,1270.992920 1158.394775,1274.044189 
z"/>
<path fill="#FEFEFD" opacity="1.000000" stroke="none" 
	d="
M1528.407471,774.934937 
	C1530.565063,771.526489 1533.057495,767.987000 1535.811035,764.755737 
	C1533.628906,768.310547 1531.185669,771.557251 1528.407471,774.934937 
z"/>
<path fill="#FEFEFD" opacity="1.000000" stroke="none" 
	d="
M506.612030,934.043396 
	C503.195343,936.493103 499.391754,938.928223 495.248413,941.165771 
	C498.680817,938.655090 502.452972,936.341980 506.612030,934.043396 
z"/>
<path fill="#FEFEFD" opacity="1.000000" stroke="none" 
	d="
M801.604553,626.965332 
	C798.218567,629.008850 794.440186,631.106506 790.291321,633.088867 
	C793.684570,630.988953 797.448364,629.004272 801.604553,626.965332 
z"/>
<path fill="#FEFEFD" opacity="1.000000" stroke="none" 
	d="
M753.762085,654.074707 
	C750.270203,656.933655 746.393188,659.726379 742.226807,662.227783 
	C745.750610,659.293762 749.563721,656.651123 753.762085,654.074707 
z"/>
<path fill="#FEFEFD" opacity="1.000000" stroke="none" 
	d="
M1350.414795,1036.037598 
	C1352.907471,1033.502686 1355.759033,1030.929199 1358.837158,1028.714233 
	C1356.300415,1031.381592 1353.536987,1033.690308 1350.414795,1036.037598 
z"/>
<path fill="#FEFEFD" opacity="1.000000" stroke="none" 
	d="
M1217.403564,1228.038574 
	C1219.178833,1225.612427 1221.303467,1223.148560 1223.759766,1220.855469 
	C1221.978638,1223.351074 1219.865723,1225.675903 1217.403564,1228.038574 
z"/>
<path fill="#FEFEFD" opacity="1.000000" stroke="none" 
	d="
M1360.411987,1028.036133 
	C1362.232178,1025.843262 1364.406006,1023.612305 1366.822266,1021.725098 
	C1364.964966,1024.045288 1362.865356,1026.021729 1360.411987,1028.036133 
z"/>
<path fill="#FEFEFD" opacity="1.000000" stroke="none" 
	d="
M741.577148,661.966431 
	C739.900391,663.922913 737.863953,665.909119 735.507568,668.027710 
	C737.197632,666.105469 739.207581,664.050842 741.577148,661.966431 
z"/>
<path fill="#FEFEFD" opacity="1.000000" stroke="none" 
	d="
M698.960510,1222.350708 
	C700.716980,1223.476440 702.526306,1224.955444 704.153320,1226.761841 
	C702.318481,1225.627563 700.665955,1224.165649 698.960510,1222.350708 
z"/>
<path fill="#FEFEFD" opacity="1.000000" stroke="none" 
	d="
M384.962219,1095.424072 
	C386.942688,1096.165283 388.961700,1097.275757 391.000824,1098.738892 
	C389.014191,1097.992188 387.007446,1096.892700 384.962219,1095.424072 
z"/>
<path fill="#FEFEFD" opacity="1.000000" stroke="none" 
	d="
M1153.352661,1277.044434 
	C1154.481445,1275.923706 1155.963989,1274.749146 1157.767090,1273.807251 
	C1156.627197,1275.023438 1155.166870,1276.007080 1153.352661,1277.044434 
z"/>
<path fill="#FEFEFD" opacity="1.000000" stroke="none" 
	d="
M1171.317139,1265.010742 
	C1172.459595,1263.924194 1173.955200,1262.764404 1175.769531,1261.820312 
	C1174.615723,1263.003174 1173.143066,1263.970337 1171.317139,1265.010742 
z"/>
<path fill="#FEFEFD" opacity="1.000000" stroke="none" 
	d="
M517.594727,926.957336 
	C516.436279,928.176453 514.928101,929.432678 513.177979,930.307617 
	C514.372375,928.949036 515.808716,927.971741 517.594727,926.957336 
z"/>
<path fill="#FEFEFD" opacity="1.000000" stroke="none" 
	d="
M526.597656,921.956604 
	C525.457092,923.150391 523.966431,924.381897 522.201782,925.275146 
	C523.367676,923.956116 524.807617,922.975220 526.597656,921.956604 
z"/>
<path fill="#FEFEFD" opacity="1.000000" stroke="none" 
	d="
M721.965820,1243.339478 
	C723.099182,1243.820801 724.287231,1244.657593 725.212952,1245.787231 
	C723.973938,1245.284912 722.997253,1244.489868 721.965820,1243.339478 
z"/>
<path fill="#FEFEFD" opacity="1.000000" stroke="none" 
	d="
M1224.375122,1221.047485 
	C1224.837891,1219.892822 1225.654297,1218.692383 1226.775024,1217.771484 
	C1226.295776,1219.034668 1225.512329,1220.018066 1224.375122,1221.047485 
z"/>
<path fill="#FEFEFD" opacity="1.000000" stroke="none" 
	d="
M703.957886,1227.378174 
	C705.024658,1227.811279 706.141174,1228.598755 707.120483,1229.740479 
	C705.991333,1229.307373 704.999451,1228.520020 703.957886,1227.378174 
z"/>
<path fill="#FEFEFD" opacity="1.000000" stroke="none" 
	d="
M491.661011,942.963806 
	C491.099030,943.649292 490.180878,944.397583 488.867188,945.088257 
	C489.416077,944.362549 490.360504,943.694580 491.661011,942.963806 
z"/>
<path fill="#FEFEFD" opacity="1.000000" stroke="none" 
	d="
M494.654114,940.953979 
	C494.201477,941.690613 493.414581,942.478943 492.267090,943.125610 
	C492.710968,942.324585 493.515411,941.665161 494.654114,940.953979 
z"/>
<path fill="#FEFEFD" opacity="1.000000" stroke="none" 
	d="
M1136.191406,1286.976318 
	C1136.680176,1286.262817 1137.524536,1285.540649 1138.729492,1284.910889 
	C1138.242310,1285.657959 1137.394653,1286.312866 1136.191406,1286.976318 
z"/>
<path fill="#FEFEFD" opacity="1.000000" stroke="none" 
	d="
M1135.863037,635.897522 
	C1135.567505,635.808533 1135.227661,635.617004 1134.779663,635.326904 
	C1135.053955,635.417236 1135.436279,635.606140 1135.863037,635.897522 
z"/>
<path fill="#FEFEFD" opacity="1.000000" stroke="none" 
	d="
M706.951233,1230.367676 
	C707.737366,1230.475708 708.570740,1230.939331 709.183838,1231.745605 
	C708.308533,1231.633301 707.653503,1231.178223 706.951233,1230.367676 
z"/>
<path fill="#FEFEFD" opacity="1.000000" stroke="none" 
	d="
M789.656616,632.967773 
	C789.292114,633.315674 788.575806,633.719360 787.499451,634.086060 
	C787.861206,633.707275 788.583008,633.365417 789.656616,632.967773 
z"/>
<path fill="#FEFEFD" opacity="1.000000" stroke="none" 
	d="
M1097.976318,618.299500 
	C1097.996704,618.302734 1097.811523,618.410400 1097.806885,618.352783 
	C1097.802368,618.295227 1097.955933,618.296265 1097.976318,618.299500 
z"/>
<path fill="#FEFEFD" opacity="1.000000" stroke="none" 
	d="
M767.023376,1276.345703 
	C767.574463,1276.128784 768.237305,1276.221191 768.962952,1276.689941 
	C768.395569,1276.929199 767.765381,1276.792114 767.023376,1276.345703 
z"/>
<path fill="#FEFEFD" opacity="1.000000" stroke="none" 
	d="
M1131.649414,633.427856 
	C1131.489624,633.412781 1131.221313,633.333008 1130.807129,633.282959 
	C1130.979858,633.206909 1131.273193,633.223755 1131.649414,633.427856 
z"/>
<path fill="#FEFEFD" opacity="1.000000" stroke="none" 
	d="
M1140.111084,638.275391 
	C1140.172852,638.274292 1139.749878,638.298401 1139.671387,638.271118 
	C1139.592896,638.243835 1140.049194,638.276428 1140.111084,638.275391 
z"/>
<path fill="#FEFEFD" opacity="1.000000" stroke="none" 
	d="
M1138.140503,637.295044 
	C1138.175781,637.290588 1137.895142,637.395325 1137.874268,637.343994 
	C1137.853516,637.292664 1138.105225,637.299500 1138.140503,637.295044 
z"/>
<path fill="#FEFEFD" opacity="1.000000" stroke="none" 
	d="
M521.678894,924.948669 
	C521.496948,925.500000 520.997131,926.105408 520.214233,926.320435 
	C520.407837,925.620972 520.884399,925.311829 521.678894,924.948669 
z"/>
<path fill="#FEFEFD" opacity="1.000000" stroke="none" 
	d="
M1129.033569,632.271423 
	C1129.081055,632.268738 1128.749634,632.275818 1128.685791,632.260315 
	C1128.621826,632.244812 1128.986084,632.274109 1129.033569,632.271423 
z"/>
<path fill="#FEFEFD" opacity="1.000000" stroke="none" 
	d="
M519.662964,925.944031 
	C519.505249,926.498901 519.030273,927.101379 518.241272,927.319336 
	C518.400024,926.620422 518.872864,926.306030 519.662964,925.944031 
z"/>
<path fill="#FEFEFD" opacity="1.000000" stroke="none" 
	d="
M512.692139,929.985229 
	C512.869263,930.336548 512.770325,930.772400 512.247498,931.121643 
	C512.021118,930.713257 512.218628,930.391541 512.692139,929.985229 
z"/>
<path fill="#FEFEFD" opacity="1.000000" stroke="none" 
	d="
M771.033386,1278.285156 
	C771.374878,1278.163696 771.774414,1278.306763 772.083130,1278.773682 
	C771.691956,1278.915039 771.391663,1278.732300 771.033386,1278.285156 
z"/>
<path fill="#FEFEFD" opacity="1.000000" stroke="none" 
	d="
M769.086792,1277.053223 
	C768.890015,1277.210327 768.978821,1277.443970 769.444885,1277.672363 
	C769.421753,1277.611816 769.271851,1277.432861 769.086792,1277.053223 
z"/>
<path fill="#FEFEFD" opacity="1.000000" stroke="none" 
	d="
M487.935730,945.015320 
	C488.051575,945.413940 487.851471,945.830017 487.278015,946.116394 
	C487.143066,945.668701 487.381439,945.350769 487.935730,945.015320 
z"/>
<path fill="#FEFEFD" opacity="1.000000" stroke="none" 
	d="
M1359.294189,1029.017944 
	C1359.108887,1028.608887 1359.184937,1028.120361 1359.678589,1027.829590 
	C1359.916016,1028.331055 1359.735718,1028.634888 1359.294189,1029.017944 
z"/>
<path fill="#FEFEFD" opacity="1.000000" stroke="none" 
	d="
M1349.295410,1037.018311 
	C1349.109741,1036.614502 1349.185303,1036.130859 1349.678833,1035.836548 
	C1349.916748,1036.330078 1349.736816,1036.634399 1349.295410,1037.018311 
z"/>
<path fill="#FEFEFD" opacity="1.000000" stroke="none" 
	d="
M1133.655151,634.423706 
	C1133.635010,634.414490 1133.673706,634.449890 1133.709961,634.453857 
	C1133.746216,634.457886 1133.675293,634.432861 1133.655151,634.423706 
z"/>
<path fill="#FEFEFD" opacity="1.000000" stroke="none" 
	d="
M410.116333,1108.023193 
	C409.878021,1108.219116 409.963684,1108.443359 410.426056,1108.643677 
	C410.457916,1108.525024 410.337097,1108.335693 410.116333,1108.023193 
z"/>
<path fill="#FEFEFD" opacity="1.000000" stroke="none" 
	d="
M878.038818,706.811768 
	C877.717468,688.605103 885.191650,675.015076 900.641357,666.463806 
	C915.057983,658.484375 929.805481,659.179321 943.838928,667.753967 
	C960.447510,677.902161 968.274231,699.117249 962.373230,716.832275 
	C955.980835,736.022400 937.838745,748.889832 919.193420,747.457886 
	C898.240173,745.848694 882.231873,731.748352 878.647339,711.722656 
	C878.383972,710.251648 878.250732,708.757385 878.038818,706.811768 
z"/>
<path fill="#FEFEFD" opacity="1.000000" stroke="none" 
	d="
M1056.288086,826.135071 
	C1049.666382,838.646545 1038.259277,845.158447 1026.084106,843.620239 
	C1013.633240,842.047180 1003.724731,833.463013 1000.558044,821.505737 
	C996.531006,806.300232 1005.393860,790.467224 1020.628418,785.650940 
	C1035.272949,781.021118 1051.668579,789.316345 1057.056763,803.937622 
	C1059.790283,811.355103 1059.455078,818.584900 1056.288086,826.135071 
z"/>
<path fill="#000000" opacity="1.000000" stroke="none" 
	d="
M1028.257812,600.610474 
	C1028.837646,600.659058 1029.417358,600.707703 1030.097900,600.752319 
	C1034.740845,602.081482 1039.283203,603.414612 1043.825562,604.747681 
	C1043.739990,605.049744 1043.654541,605.351807 1043.568970,605.653809 
	C1040.412964,605.435425 1037.250488,605.286194 1034.102539,604.983643 
	C1028.205078,604.416870 1022.936829,606.406799 1017.589966,608.513123 
	C1016.027283,609.128723 1013.853699,608.276367 1011.975647,607.993958 
	C1005.225525,606.978943 998.479370,605.936523 991.738647,604.860779 
	C990.630371,604.683960 989.562500,604.055359 988.466492,604.029114 
	C972.544983,603.647339 956.621277,603.073486 940.699524,603.114197 
	C933.012695,603.133850 925.262268,603.912292 917.657959,605.098877 
	C902.451721,607.471802 887.244568,609.979065 872.197937,613.182983 
	C863.157715,615.107971 854.397217,618.381897 845.554016,621.185059 
	C839.847107,622.994019 834.131104,624.832825 828.584961,627.069336 
	C824.974121,628.525452 821.795715,628.436340 818.349426,626.774414 
	C817.232422,626.235779 815.636597,626.689880 814.254944,627.765808 
	C815.608337,627.906250 816.961731,628.046692 818.315186,628.187134 
	C818.319092,628.369995 818.322937,628.552917 818.326843,628.735840 
	C817.041565,628.879395 815.756226,629.023010 814.161560,629.201111 
	C814.022766,630.564758 813.876831,631.998657 813.807495,632.679749 
	C811.681580,631.358154 809.273621,629.861206 806.542480,628.163391 
	C815.218506,624.380554 824.031860,620.537964 832.917847,616.323364 
	C832.990540,615.951355 833.001526,615.998474 833.379761,616.004028 
	C836.500000,614.983215 839.242004,613.956787 841.984009,612.930359 
	C841.984009,612.930359 841.989441,612.981812 841.967041,612.968994 
	C848.749512,611.063293 855.507996,608.978149 862.370056,607.322083 
	C873.008118,604.754639 883.665527,602.211792 894.410095,600.157227 
	C904.767273,598.176758 915.197937,596.321167 925.683289,595.341003 
	C936.866699,594.295715 948.150452,594.291321 959.393616,593.934448 
	C963.555664,593.802307 967.729126,593.883728 971.893616,594.000000 
	C983.149170,594.314148 994.402771,594.699219 1006.053223,594.960876 
	C1011.853516,596.143555 1017.257690,597.421509 1023.462341,598.836426 
	C1024.868774,598.956238 1025.474731,598.939026 1026.080688,598.921753 
	C1026.080688,598.921814 1025.998291,598.943542 1026.107178,599.276489 
	C1026.896606,599.943176 1027.577271,600.276855 1028.257812,600.610474 
z"/>
<path fill="#FEFEFD" opacity="1.000000" stroke="none" 
	d="
M1070.971924,710.287354 
	C1074.369873,702.621338 1080.038330,698.743835 1087.987671,699.125549 
	C1095.062378,699.465210 1100.284424,703.259094 1102.842529,709.908264 
	C1105.461182,716.714600 1104.124512,723.022156 1098.999756,728.314148 
	C1093.680420,733.807129 1085.481445,734.912109 1078.831543,731.178467 
	C1071.396851,727.004272 1068.596924,719.805725 1070.971924,710.287354 
z"/>
<path fill="#000000" opacity="1.000000" stroke="none" 
	d="
M1205.235718,686.386658 
	C1205.639404,686.715698 1206.043091,687.044800 1206.701660,687.864136 
	C1207.671143,688.886230 1208.385498,689.418091 1209.099976,689.950012 
	C1209.099976,689.950012 1209.022339,689.966187 1209.072632,690.256470 
	C1210.096680,691.355164 1211.070557,692.163574 1212.044312,692.971985 
	C1212.044312,692.971985 1212.000000,692.999390 1212.043213,693.325684 
	C1213.076538,694.092712 1214.066650,694.533325 1215.056763,694.973938 
	C1215.056763,694.973938 1215.002075,695.000916 1214.988159,695.316772 
	C1215.331787,696.080322 1215.689331,696.527954 1216.046875,696.975586 
	C1216.046875,696.975586 1216.000000,697.000000 1216.051636,697.320496 
	C1216.763428,697.743652 1217.423584,697.846313 1218.083740,697.948975 
	C1218.083740,697.948914 1218.049194,697.908142 1218.064941,697.886597 
	C1215.701172,697.909668 1212.993164,698.717041 1211.002075,697.859619 
	C1204.300415,694.973938 1196.435059,694.419678 1191.193237,688.520508 
	C1189.982544,687.158020 1189.309448,685.301697 1188.048828,684.002930 
	C1185.198608,681.066406 1182.090820,678.381531 1179.190063,675.491516 
	C1178.414429,674.718567 1178.007812,673.575195 1177.488647,672.697937 
	C1177.986572,670.899902 1183.291382,674.009705 1181.035645,668.766113 
	C1184.463135,671.181580 1187.890503,673.597046 1191.685303,675.964844 
	C1192.052490,675.917236 1192.002686,675.973999 1192.064453,676.289185 
	C1193.455444,677.381775 1194.784790,678.159180 1196.114014,678.936584 
	C1196.114014,678.936584 1196.058472,678.994873 1196.074463,679.243286 
	C1196.417114,679.646790 1196.743774,679.801819 1197.070557,679.956909 
	C1197.070557,679.956909 1196.999023,679.976746 1197.064575,680.318176 
	C1197.838013,680.889526 1198.545898,681.119446 1199.253662,681.349365 
	C1199.590820,682.019348 1199.927979,682.689270 1200.712280,683.703613 
	C1201.823242,684.337891 1202.487061,684.627869 1203.150879,684.917847 
	C1203.150879,684.917847 1203.060303,684.931091 1203.124268,685.252258 
	C1203.870728,685.844482 1204.553223,686.115601 1205.235718,686.386658 
z"/>
<path fill="#000000" opacity="1.000000" stroke="none" 
	d="
M785.110596,640.103149 
	C786.709229,638.836121 788.490601,637.754578 790.272034,636.672974 
	C790.551270,637.264404 790.830566,637.855896 791.109802,638.447327 
	C789.487183,639.011353 787.864502,639.575317 785.972595,640.374512 
	C785.566650,640.502686 785.430054,640.395630 785.110596,640.103149 
z"/>
<path fill="#000000" opacity="1.000000" stroke="none" 
	d="
M538.299072,927.792725 
	C533.487122,929.051025 529.019897,930.127625 524.552612,931.204285 
	C524.458679,930.980957 524.364807,930.757629 524.270874,930.534302 
	C529.192444,927.182251 534.028687,923.687500 539.130676,920.637329 
	C539.867126,920.197021 541.880737,921.893188 543.303345,922.600647 
	C543.251099,923.038635 543.198914,923.476685 543.146729,923.914734 
	C541.138855,924.449341 539.130981,924.984009 537.123108,925.518616 
	C536.722900,925.921326 536.322632,926.323975 535.922424,926.726685 
	C536.829529,927.021423 537.736633,927.316162 538.299072,927.792725 
z"/>
<path fill="#F79425" opacity="1.000000" stroke="none" 
	d="
M1196.394897,678.582275 
	C1194.784790,678.159180 1193.455444,677.381775 1192.075317,676.253540 
	C1193.574829,676.677734 1195.125366,677.452820 1196.394897,678.582275 
z"/>
<path fill="#F79425" opacity="1.000000" stroke="none" 
	d="
M1212.323975,692.640015 
	C1211.070557,692.163574 1210.096680,691.355164 1209.082886,690.218140 
	C1210.229736,690.695740 1211.416626,691.501892 1212.323975,692.640015 
z"/>
<path fill="#F79425" opacity="1.000000" stroke="none" 
	d="
M1215.120850,694.570312 
	C1214.066650,694.533325 1213.076538,694.092712 1212.055542,693.302612 
	C1213.078125,693.357727 1214.131470,693.762207 1215.120850,694.570312 
z"/>
<path fill="#F79425" opacity="1.000000" stroke="none" 
	d="
M1209.279785,689.533936 
	C1208.385498,689.418091 1207.671143,688.886230 1206.805420,688.035767 
	C1207.589355,688.184021 1208.524536,688.650879 1209.279785,689.533936 
z"/>
<path fill="#F79425" opacity="1.000000" stroke="none" 
	d="
M1203.377441,684.501587 
	C1202.487061,684.627869 1201.823242,684.337891 1200.803955,683.927063 
	C1201.500244,683.899292 1202.552002,683.992310 1203.377441,684.501587 
z"/>
<path fill="#F79425" opacity="1.000000" stroke="none" 
	d="
M1199.324219,680.852112 
	C1198.545898,681.119446 1197.838013,680.889526 1197.082764,680.285828 
	C1197.821777,680.059631 1198.608276,680.207214 1199.324219,680.852112 
z"/>
<path fill="#F79425" opacity="1.000000" stroke="none" 
	d="
M1205.328125,685.906250 
	C1204.553223,686.115601 1203.870728,685.844482 1203.131592,685.207092 
	C1203.856812,685.035767 1204.638672,685.230835 1205.328125,685.906250 
z"/>
<path fill="#F79425" opacity="1.000000" stroke="none" 
	d="
M1216.356689,696.671021 
	C1215.689331,696.527954 1215.331787,696.080322 1215.000732,695.289062 
	C1215.573730,695.419128 1216.120117,695.892761 1216.356689,696.671021 
z"/>
<path fill="#F79425" opacity="1.000000" stroke="none" 
	d="
M1218.091675,697.517944 
	C1217.423584,697.846313 1216.763428,697.743652 1216.063721,697.296997 
	C1216.715942,696.997620 1217.407837,697.042297 1218.091675,697.517944 
z"/>
<path fill="#F79425" opacity="1.000000" stroke="none" 
	d="
M1197.229736,679.580078 
	C1196.743774,679.801819 1196.417114,679.646790 1196.071655,679.203125 
	C1196.498291,679.010803 1196.943481,679.107056 1197.229736,679.580078 
z"/>
<path fill="#174577" opacity="1.000000" stroke="none" 
	d="
M1395.780029,987.780396 
	C1395.933838,987.334290 1396.268188,987.070068 1396.602783,986.805908 
	C1396.684326,987.180664 1396.765869,987.555420 1396.585205,988.127808 
	C1396.202148,988.204346 1396.081543,988.083374 1395.780029,987.780396 
z"/>
<path fill="#F79425" opacity="1.000000" stroke="none" 
	d="
M1028.720215,600.783752 
	C1027.577271,600.276855 1026.896606,599.943176 1026.127197,599.238892 
	C1027.316406,598.967590 1028.594604,599.066956 1029.872559,599.166321 
	C1029.642578,599.763184 1029.412598,600.360107 1028.720215,600.783752 
z"/>
<path fill="#F79425" opacity="1.000000" stroke="none" 
	d="
M1026.055420,598.520569 
	C1025.474731,598.939026 1024.868774,598.956238 1023.814270,598.880310 
	C1024.253906,598.564575 1025.142090,598.341980 1026.055420,598.520569 
z"/>
<path fill="#F79425" opacity="1.000000" stroke="none" 
	d="
M841.622192,612.700806 
	C839.242004,613.956787 836.500000,614.983215 833.356812,615.996094 
	C835.723938,614.812195 838.492126,613.641724 841.622192,612.700806 
z"/>
</svg>