<svg width="40" height="40" viewBox="0 0 40 40" fill="none" xmlns="http://www.w3.org/2000/svg">
<path d="M20 0C8.9543 0 0 8.9543 0 20C0 31.0457 8.9543 40 20 40C31.0457 40 40 31.0457 40 20C40 8.9543 31.0457 0 20 0ZM28.7434 15.5192C28.7668 17.0107 28.5694 24.4681 21.4915 27.6996C14.4136 30.9311 9.0625 26.9042 9.0625 26.9042C13.0216 27.277 15.6184 25.0398 15.6184 25.0398C12.4116 24.9031 11.4795 21.9202 11.4795 21.9202C12.623 22.1191 13.4142 21.8 13.4142 21.8C9.83477 20.8391 9.92586 17.3588 9.92586 17.3588C10.945 17.9636 11.8399 17.8559 11.8399 17.8559C8.52555 15.4695 10.554 11.9148 10.554 11.9148C14.2827 16.5136 19.868 16.6419 19.868 16.6419C19.7888 16.273 19.7497 15.8965 19.7514 15.5192C19.7514 12.5363 22.3797 11.0448 24.2259 11.0448C26.072 11.0448 27.4383 12.4369 27.4383 12.4369C28.8428 12.3744 30.3467 11.4177 30.3467 11.4177C29.7501 13.2323 28.4952 13.9035 28.4952 13.9035C29.6324 13.7792 30.9379 13.2074 30.9379 13.2074C30.4967 14.177 28.7434 15.5192 28.7434 15.5192Z" fill="white"/>
</svg>
